<svg width="502" height="415" viewBox="0 0 502 415" fill="none" xmlns="http://www.w3.org/2000/svg">
<path opacity="0.18" d="M2.93394 299.781C5.66844 316.767 22.3728 395.766 83.3878 412.532C129.57 425.25 259.194 381.643 333.098 403.578C481.755 447.683 508.984 329.257 500.65 297.27C494.847 274.976 487.717 252.609 487.528 229.326C487.332 204.968 495.783 181.004 496.711 156.492C499.047 94.4131 455.839 33.4909 396.884 15.6704C371.642 8.04869 351.014 0.29523 324.677 0.053621C271.227 -0.407633 144.381 0.0536187 81.9008 91.792C70.738 108.192 54.5196 120.456 42.0656 135.875C25.383 156.536 14.3797 181.451 7.69937 207.237C-0.0616837 237.321 -1.99107 269.185 2.93394 299.781Z" fill="#68E1FD"/>
<path d="M386.011 212.547H390.174V320.297H386.011V212.547Z" fill="#68E1FD"/>
<path d="M386.011 212.547H390.174V320.297H386.011V212.547Z" fill="#BCDBF2"/>
<path d="M246.928 312.696L329.761 315.925C333.656 316.079 337.74 316.255 340.982 317.045C346.197 318.319 347.633 320.918 345.711 322.976C343.789 325.033 339.183 326.637 334.324 327.947C304.164 336.118 261.877 335.927 223.065 335.371L39.9838 332.772C32.9191 332.669 25.615 332.552 19.203 331.454C12.7911 330.356 7.50342 328.006 8.40283 325.597C9.2152 323.4 14.5972 321.834 20.0081 320.728C35.8929 317.485 54.7443 316.452 73.1387 315.53C101.025 314.124 128.97 312.84 156.973 311.679" fill="url(#paint0_linear_874_115)"/>
<path d="M457.536 315.143L487.122 317.449C488.526 317.441 489.909 317.793 491.141 318.474C493.005 319.733 493.527 322.405 492.852 324.565C492.178 326.725 490.546 328.438 488.805 329.873C478.07 338.725 462.969 339.062 449.108 338.974L383.712 338.571C381.188 338.571 378.576 338.527 376.284 337.466C373.992 336.404 372.092 334.032 372.404 331.506C372.687 329.229 374.58 327.531 376.531 326.308C382.188 322.75 388.92 321.439 395.484 320.246C405.435 318.435 415.409 316.751 425.404 315.194" fill="url(#paint1_linear_874_115)"/>
<path d="M315.871 96.5508H456.136V226.8H315.871V96.5508Z" fill="white"/>
<path opacity="0.18" d="M388.086 114.021H447.621V215.767H388.086V114.021Z" fill="#68E1FD"/>
<path d="M392.778 123.788H444.886V172.534H392.778V123.788Z" fill="white"/>
<path d="M311.795 93.4395H458.631V99.0111H311.795V93.4395Z" fill="#68E1FD"/>
<path d="M311.795 224.875H458.631V230.446H311.795V224.875Z" fill="#68E1FD"/>
<path d="M155.725 311.854H152.519V281.924H155.725V311.854Z" fill="#4C506D"/>
<path d="M174.127 315.441H138.52V311.246H174.127V315.441Z" fill="#4C506D"/>
<path d="M174.127 315.441H138.52V311.246H174.127V315.441Z" fill="#2F3554"/>
<path d="M142.568 281.932H162.471C165.459 281.932 167.882 279.486 167.882 276.47C167.882 273.453 165.459 271.008 162.471 271.008H142.568C139.579 271.008 137.157 273.453 137.157 276.47C137.157 279.486 139.579 281.932 142.568 281.932Z" fill="#4C506D"/>
<path d="M148.988 281.932H168.891C171.879 281.932 174.302 279.486 174.302 276.47C174.302 273.453 171.879 271.008 168.891 271.008H148.988C145.999 271.008 143.577 273.453 143.577 276.47C143.577 279.486 145.999 281.932 148.988 281.932Z" fill="#2F3554"/>
<path d="M128.431 230.629V241.033C128.431 242.878 129.157 244.647 130.449 245.951C131.741 247.256 133.494 247.989 135.321 247.989H145.621C147.449 247.989 149.203 247.256 150.496 245.952C151.789 244.648 152.517 242.878 152.519 241.033V230.629C152.519 228.783 151.792 227.012 150.499 225.706C149.205 224.4 147.45 223.667 145.621 223.667H135.321C135.013 223.666 134.705 223.688 134.4 223.732C132.747 223.958 131.23 224.781 130.132 226.049C129.034 227.318 128.43 228.945 128.431 230.629Z" fill="#4C506D"/>
<path d="M131.288 241.093C131.427 242.192 131.825 243.241 132.449 244.153C134.313 246.73 137.94 247.045 141.095 247.126C143.445 247.184 151.641 248.963 151.054 244.988C150.742 242.901 149.501 240.683 148.878 238.669C148.254 236.656 146.934 234.057 146.934 232.021C146.497 230.089 145.91 228.194 145.178 226.354C144.762 225.394 144.226 224.491 143.583 223.668H135.314C135.025 223.654 134.736 223.688 134.458 223.77C134.792 226.567 132.957 228.544 131.948 230.989C131.042 233.185 131.056 235.594 131.085 237.944C131.081 238.997 131.148 240.049 131.288 241.093Z" fill="#2F3554"/>
<path d="M145.512 241.517C146.061 242.71 146.491 243.956 146.795 245.236C147.071 246.803 147.521 248.333 147.818 249.907C148.363 253.072 148.622 256.279 148.594 259.491C148.594 260.758 148.594 262.193 149.494 263.071C150.155 263.602 150.953 263.932 151.793 264.023C153.425 264.352 154.897 265.004 156.522 265.282C158.294 265.54 160.085 265.647 161.875 265.604C167.155 265.604 176.984 265.011 176.657 257.551C176.302 249.102 175.649 240.887 174.481 232.467C174.082 229.648 174.003 226.398 173.154 223.681C172.429 221.404 169.81 221.383 167.627 221.617L167.214 221.661C166.793 221.705 166.372 221.756 165.959 221.815C163.051 222.116 160.124 222.201 157.204 222.071C153.911 221.968 148.652 221.639 145.417 224.765C145.192 224.98 144.981 225.21 144.786 225.453C141.529 229.422 143.285 235.85 145.512 241.517Z" fill="white"/>
<path d="M188.097 239.525C188.38 241.302 188.526 243.099 188.532 244.899C188.581 245.529 188.447 246.159 188.148 246.714C187.597 247.564 186.443 247.732 185.435 247.71C182.257 247.677 179.217 246.392 176.963 244.13C174.862 242.023 172.94 239.74 171.219 237.306C170.741 236.738 170.38 236.08 170.157 235.37C169.934 234.66 169.853 233.911 169.92 233.169C169.92 231.127 170 229.077 170.182 227.041C170.225 226.565 173.482 226.939 173.808 227.041C175.024 227.393 176.184 227.918 177.254 228.601C177.377 227.261 177 225.731 176.891 224.369C176.818 223.966 176.866 223.551 177.029 223.176C177.399 222.509 178.32 222.443 179.081 222.517C180.713 222.634 182.519 222.912 183.535 224.201C183.964 224.811 184.283 225.492 184.478 226.214C185.943 230.556 187.401 234.993 188.097 239.525Z" fill="white"/>
<path d="M183.266 241.239C183.434 241.905 183.365 242.61 183.07 243.23C182.344 244.343 180.676 243.962 179.494 243.42C177.91 242.653 176.402 241.737 174.99 240.682C174.872 240.566 174.732 240.475 174.579 240.414C174.426 240.354 174.262 240.325 174.097 240.331C173.858 240.409 173.649 240.563 173.503 240.77C171.295 243.222 168.602 245.178 165.596 246.51C164.574 246.964 163.225 247.242 162.485 246.43C161.745 245.617 162.332 244.094 162.985 243.076L170.761 230.952C170.85 230.775 170.996 230.633 171.174 230.549C171.472 230.447 171.769 230.674 172.008 230.879C173.079 231.812 174.267 232.6 175.541 233.222C175.988 233.502 176.526 233.599 177.042 233.492C177.768 233.244 178.014 232.35 178.108 231.589C178.262 230.321 178.296 229.041 178.21 227.767C178.127 227.241 178.161 226.703 178.312 226.193C178.417 225.971 178.568 225.773 178.755 225.613C178.941 225.454 179.159 225.336 179.394 225.267C179.628 225.197 179.875 225.179 180.117 225.213C180.359 225.246 180.592 225.331 180.799 225.461C181.757 226.193 181.605 228.961 181.764 230.139L183.266 241.239Z" fill="#D8DAE1"/>
<path d="M156.384 240.814C157.089 242.112 158.037 243.259 159.177 244.19C160.446 245.185 163.384 249.102 165.205 247.909C164.404 248.617 163.461 249.141 162.441 249.446C165.255 251.445 168.802 251.98 172.182 252.617C173.062 252.728 173.911 253.017 174.677 253.466C175.059 253.693 175.369 254.025 175.572 254.423C175.774 254.821 175.862 255.268 175.823 255.714C175.577 257.251 173.647 257.712 172.095 257.808C168.302 258.042 164.486 258.122 160.715 258.591C157.501 258.986 154.042 259.836 152.061 262.42C151.921 262.645 151.723 262.827 151.488 262.947C151.288 262.997 151.077 262.974 150.892 262.883C150.706 262.792 150.558 262.639 150.473 262.449C150.312 262.063 150.24 261.645 150.263 261.227C150.202 258.046 149.714 254.889 148.812 251.841C148.449 250.611 148.406 249.359 148.05 248.18C147.615 246.715 146.825 245.346 146.331 243.904C145.346 240.992 144.682 237.979 144.351 234.921C144.119 232.775 144.271 230.184 146.099 229.063C146.79 228.706 147.569 228.558 148.342 228.639C149.115 228.719 149.847 229.024 150.451 229.517C151.64 230.516 152.558 231.804 153.12 233.259C154.216 235.726 155.043 238.486 156.384 240.814Z" fill="#D8DAE1"/>
<path d="M164.219 227.437C164.109 227.573 164.028 227.73 163.979 227.898C163.969 228.083 164.007 228.267 164.088 228.433C165.757 232.978 167.095 237.639 168.092 242.38C169.064 246.532 170.043 250.712 170.268 254.981C170.301 255.29 170.279 255.602 170.203 255.903C169.883 256.957 168.52 257.287 167.925 258.209L165.945 255.932C165.818 255.8 165.715 255.646 165.64 255.478C165.586 255.237 165.586 254.987 165.64 254.746C166.315 250.185 165.575 245.536 164.516 241.055C163.609 237.204 162.456 233.346 162.529 229.385C162.566 229.149 162.554 228.907 162.493 228.676C162.432 228.445 162.323 228.23 162.173 228.045C161.971 227.908 161.751 227.8 161.52 227.723C161.252 227.597 161.013 227.417 160.816 227.194C160.619 226.972 160.469 226.711 160.376 226.428C160.282 226.145 160.247 225.846 160.271 225.548C160.296 225.251 160.38 224.962 160.519 224.699C160.939 224.695 161.352 224.59 161.723 224.391C162.097 224.192 162.53 224.135 162.942 224.23C163.834 224.574 164.741 226.566 164.219 227.437Z" fill="#68E1FD"/>
<path d="M145.404 224.786C148.639 221.66 153.898 221.989 157.191 222.092C160.111 222.223 163.038 222.137 165.946 221.836C166.359 221.777 166.78 221.726 167.201 221.682C165.467 220.95 163.001 221.448 161.144 221.506C158.335 221.599 155.528 221.772 152.723 222.026C150.061 222.268 147.131 222.729 145.404 224.786Z" fill="white"/>
<path d="M155.37 213.093C155.904 214.496 156.941 215.644 158.276 216.311C159.61 216.977 161.144 217.111 162.573 216.688C162.573 216.688 161.209 220.89 162.921 223.431C162.921 223.431 161.782 226.359 154.13 222.032C154.13 222.032 156.197 221.857 155.631 217.574C155.465 216.098 154.95 214.684 154.13 213.452C154.221 213.55 154.337 213.62 154.466 213.656C154.595 213.692 154.73 213.691 154.859 213.654C154.987 213.617 155.102 213.545 155.193 213.446C155.283 213.347 155.344 213.225 155.37 213.093Z" fill="#D68369"/>
<path d="M159.128 218.499C163.168 219.699 166.461 216.339 167.955 211.375C168.114 210.833 168.252 210.269 168.368 209.691C168.709 208.04 168.858 206.354 168.811 204.668C168.593 196.527 156.995 197.347 156.995 197.347C147.609 199.47 152.099 216.419 159.128 218.499Z" fill="#EC9C7D"/>
<path d="M184.238 269.155L183.999 268.906C184.949 269.983 185.588 270.759 185.783 271C185.305 270.363 184.782 269.748 184.238 269.155Z" fill="#DC9BD5"/>
<path d="M165.074 196.02C166.553 196.388 167.844 197.296 168.7 198.568C169.143 199.234 169.426 199.988 169.963 200.611C170.688 201.496 171.761 202.133 172.139 203.217C170.308 203.514 168.432 203.17 166.822 202.243C166.691 202.465 166.505 202.649 166.282 202.778C166.06 202.906 165.809 202.974 165.553 202.975C165.039 202.968 164.531 202.872 164.051 202.69C163.787 202.579 163.496 202.553 163.217 202.617C163.008 202.711 162.82 202.848 162.666 203.019C162.191 203.428 161.622 203.709 161.011 203.837C160.399 203.965 159.766 203.936 159.17 203.751C158.444 203.532 157.719 203.085 157.044 203.312C156.37 203.539 155.927 204.535 155.927 205.377C156.029 206.213 156.007 207.059 155.862 207.888C155.354 207.976 155.253 207.156 154.803 206.848C154.353 206.541 153.925 206.929 153.693 207.317C153.503 207.651 153.421 208.037 153.458 208.42C153.496 208.803 153.652 209.165 153.904 209.455C154.059 209.586 154.178 209.755 154.252 209.945C154.281 210.139 154.248 210.336 154.158 210.509L153.374 212.508C152.293 210.003 151 207.598 149.508 205.318C148.884 204.403 148.159 203.356 148.442 202.28C148.725 201.204 149.893 200.413 149.631 199.351C149.563 199.157 149.505 198.959 149.457 198.758C149.434 198.459 149.497 198.158 149.639 197.894C150.182 196.82 150.958 195.883 151.908 195.151C152.858 194.42 153.959 193.914 155.129 193.67C157.474 193.205 159.888 193.227 162.223 193.736C164.573 194.146 166.894 194.739 169.273 194.922C169.469 194.922 169.694 194.973 169.781 195.149C169.807 195.235 169.807 195.326 169.781 195.412C169.687 195.925 169.208 196.269 168.824 196.628C168.439 196.986 168.098 197.565 168.381 198.011" fill="#2F3554"/>
<path d="M156.321 259.718C156.321 259.718 161.232 272.106 165.178 273.409C169.123 274.712 183.717 279.2 183.717 279.2L204.026 317.792L212.005 312.835L194.089 267.691L178.19 259.469C178.19 259.469 174.121 259.586 156.321 259.718Z" fill="#2F3554"/>
<path d="M149.508 262.097C149.508 262.097 148.587 273.394 152.533 274.698C156.479 276.001 171.065 280.496 171.065 280.496L192.767 322.361L201.783 318.7L181.474 268.994L165.582 260.772C165.582 260.772 156.348 257.375 149.508 262.097Z" fill="#4C506D"/>
<path d="M215.268 314.27C216.309 314.298 217.346 314.403 218.372 314.585C219.332 314.687 220.245 315.06 221.005 315.661C221.436 316.041 221.725 316.557 221.825 317.126C221.868 317.41 221.847 317.701 221.762 317.976C221.678 318.252 221.533 318.504 221.339 318.714C220.971 319.039 220.534 319.275 220.062 319.403C218.967 319.798 217.886 320.179 216.769 320.567C214.445 321.498 212.004 322.097 209.516 322.346C209.369 322.364 209.22 322.349 209.08 322.302C208.973 322.244 208.876 322.17 208.79 322.082C207.296 320.618 205.889 318.875 205.526 316.796C205.508 316.727 205.508 316.653 205.526 316.584C205.562 316.503 205.623 316.436 205.7 316.394C207.203 315.368 208.855 314.585 210.596 314.073C212.192 313.619 213.65 314.234 215.268 314.27Z" fill="#2F3554"/>
<path d="M203.358 319.022C204.399 319.05 205.436 319.155 206.462 319.337C207.422 319.442 208.334 319.814 209.095 320.413C209.526 320.791 209.813 321.309 209.908 321.877C209.952 322.162 209.931 322.453 209.847 322.729C209.763 323.004 209.617 323.256 209.422 323.466C209.055 323.792 208.618 324.028 208.145 324.154C207.05 324.55 205.969 324.93 204.852 325.311C202.53 326.25 200.088 326.851 197.599 327.098C197.45 327.116 197.299 327.101 197.156 327.054C197.051 326.995 196.956 326.921 196.873 326.834C195.379 325.37 193.972 323.627 193.609 321.548C193.591 321.476 193.591 321.4 193.609 321.328C193.65 321.252 193.71 321.189 193.783 321.145C195.287 320.121 196.939 319.338 198.679 318.824C200.282 318.392 201.733 319.022 203.358 319.022Z" fill="#2F3554"/>
<path d="M143.488 230.652C143.488 230.652 150.415 246.32 157.756 248.436C165.096 250.552 173.938 228.594 173.938 228.594L168.048 226.354L158.162 236.384C158.162 236.384 152.033 223.25 149.545 223.85C147.057 224.45 142.553 227.957 143.488 230.652Z" fill="white"/>
<path d="M175.44 217.619C175.517 218.23 175.769 218.805 176.166 219.273C176.629 220.253 176.935 221.301 177.072 222.378C177.236 223.458 177.665 224.48 178.32 225.35C178.658 225.775 179.122 226.079 179.644 226.219C180.166 226.359 180.719 226.326 181.221 226.126C181.548 225.932 181.826 225.663 182.032 225.341C182.238 225.02 182.368 224.655 182.411 224.274C182.486 223.51 182.399 222.739 182.157 222.012C181.894 221.057 181.534 220.132 181.084 219.251C180.683 218.413 180.118 217.666 179.422 217.055C178.414 216.184 175.578 215.437 175.44 217.619Z" fill="#D68369"/>
<path d="M172.494 218.563C172.859 217.898 173.398 217.348 174.054 216.975C174.679 216.73 175.352 216.635 176.019 216.696C177.325 216.696 178.848 216.938 179.472 218.087C179.666 218.548 179.742 219.05 179.693 219.548C179.643 220.046 179.47 220.523 179.189 220.935C178.689 221.792 177.978 222.51 177.463 223.366C176.738 224.582 176.389 226.104 175.287 226.99C174.819 227.353 174.276 227.604 173.698 227.722C171.783 228.169 169.281 227.247 169.731 224.94C170.278 222.669 171.213 220.511 172.494 218.563Z" fill="#EC9C7D"/>
<path d="M77.0625 311.445H73.8565V281.515H77.0625V311.445Z" fill="#4C506D"/>
<path d="M95.457 315.025H59.8505V310.83H95.457V315.025Z" fill="#4C506D"/>
<path d="M95.457 315.025H59.8505V310.83H95.457V315.025Z" fill="#2F3554"/>
<path d="M63.9056 281.513H83.8087C86.7971 281.513 89.2197 279.068 89.2197 276.051C89.2197 273.035 86.7971 270.59 83.8087 270.59H63.9056C60.9172 270.59 58.4947 273.035 58.4947 276.051C58.4947 279.068 60.9172 281.513 63.9056 281.513Z" fill="#4C506D"/>
<path d="M70.3256 281.513H90.2287C93.2171 281.513 95.6396 279.068 95.6396 276.051C95.6396 273.035 93.2171 270.59 90.2287 270.59H70.3256C67.3372 270.59 64.9146 273.035 64.9146 276.051C64.9146 279.068 67.3372 281.513 70.3256 281.513Z" fill="#2F3554"/>
<path d="M49.7617 230.212V240.616C49.7617 242.461 50.4875 244.231 51.7795 245.537C53.0715 246.842 54.8242 247.577 56.6524 247.579H66.9593C68.7888 247.579 70.5433 246.845 71.8369 245.539C73.1305 244.233 73.8572 242.462 73.8572 240.616V230.212C73.8572 229.298 73.6788 228.393 73.332 227.549C72.9853 226.704 72.4771 225.937 71.8365 225.291C71.1958 224.645 70.4354 224.133 69.5985 223.784C68.7617 223.435 67.8648 223.256 66.9593 223.257H56.6669C56.3588 223.254 56.051 223.274 55.7457 223.315C54.0907 223.54 52.5725 224.363 51.4723 225.631C50.372 226.899 49.7643 228.526 49.7617 230.212Z" fill="#4C506D"/>
<path d="M52.6264 240.681C52.7649 241.781 53.1629 242.83 53.787 243.742C55.6511 246.319 59.2705 246.634 62.4329 246.714C64.783 246.78 72.972 248.552 72.3845 244.576C72.0798 242.49 70.8395 240.279 70.2085 238.265C69.5774 236.252 68.2646 233.653 68.2646 231.617C67.8269 229.683 67.24 227.786 66.5093 225.943C66.0925 224.985 65.5563 224.085 64.9136 223.264H56.6665C56.378 223.247 56.0887 223.279 55.8106 223.359C56.1443 226.163 54.3092 228.132 53.2937 230.578C52.3943 232.774 52.4088 235.183 52.4378 237.54C52.4248 238.591 52.4878 239.64 52.6264 240.681Z" fill="#2F3554"/>
<path d="M70.3973 211.931C71.9712 214.128 76.7512 216.2 76.7512 216.2C77.3024 214.055 76.1346 213.271 76.1346 213.271C74.9016 213.381 73.2986 210.343 73.8208 209.413C74.4736 208.234 75.373 208.681 75.9968 209.164C76.6164 208.675 77.1295 208.063 77.5039 207.365C77.8783 206.667 78.106 205.899 78.1728 205.108C78.2526 204.178 76.6641 201.55 79.7105 200.415C82.7569 199.28 87.0509 200.415 87.0509 200.415C87.0509 200.415 88.1606 197.545 84.6138 196.176C76.6351 193.079 67.0752 198.372 67.612 207.421C67.7498 209.874 67.9166 212.664 66.2266 214.435C65.2276 215.321 64.0494 215.975 62.774 216.354C61.1254 216.883 59.631 217.813 58.422 219.063C57.2978 220.38 56.819 222.394 57.6967 223.88C58.1246 224.612 58.8572 225.279 58.6686 226.077C58.5474 226.44 58.3379 226.767 58.0594 227.028C56.2189 229.021 55.0355 231.541 54.6721 234.24C54.5043 235.585 54.6248 236.95 55.0252 238.243C55.4257 239.537 56.0968 240.728 56.9931 241.737C59.4592 244.344 63.3978 245.025 66.9302 244.49C69.8225 244.135 72.5074 242.791 74.5389 240.683C77.4838 237.388 77.8609 232.629 78.6878 228.236C78.736 227.696 78.9489 227.185 79.2971 226.772C80.1602 225.959 81.5384 226.618 82.7207 226.589C84.7516 226.545 86.1152 224.297 86.166 222.247C86.2168 220.197 85.3899 218.243 84.9837 216.236C84.5775 214.23 84.6936 211.844 86.2313 210.518C86.8115 210.013 87.5369 209.713 88.1534 209.259C90.9024 207.26 90.7356 202.67 88.3928 200.217C86.0499 197.764 82.2855 197.149 78.9634 197.735C76.287 198.204 70.2594 199.705 68.9974 202.201C67.7353 204.698 68.816 209.75 70.3973 211.931Z" fill="#FF681C"/>
<path d="M62.215 227.679C62.0184 225.47 62.6702 223.268 64.0356 221.529C65.6386 219.648 68.083 218.806 70.3605 217.869C71.3252 217.481 72.3697 216.983 72.7831 216.016C72.9709 215.348 73.078 214.66 73.1023 213.966C73.2111 213.278 73.61 212.502 74.2918 212.436C74.5041 212.424 74.7166 212.455 74.9171 212.527C75.1175 212.598 75.3019 212.709 75.4596 212.853C76.9103 213.974 77.3672 216.038 77.0408 217.854C76.6035 219.646 75.8061 221.328 74.698 222.796C73.5896 224.261 72.6843 225.872 72.007 227.584C71.5646 228.909 71.4413 230.322 71.1221 231.684C70.3968 234.679 67.9234 236.458 65.0003 234.759C62.9694 233.595 62.3384 229.773 62.215 227.679Z" fill="#FF681C"/>
<path d="M88.9582 221.279C85.4907 221.597 82.0091 221.729 78.5279 221.675C75.01 221.572 69.2509 221.199 66.1102 225.057C62.2079 229.845 65.5662 238.236 68.2862 244.576C69.3017 246.934 69.7949 254.563 69.2726 260.142C69.2726 260.142 80.2107 264 89.8286 261.994L93.1288 249.467C93.1288 249.467 102.304 235.739 88.9582 221.279Z" fill="#4C506D"/>
<path d="M84.5847 196.167C84.5847 196.167 89.2268 196.438 90.605 203.225C91.9831 210.012 85.281 209.895 85.281 209.895L81.2119 198.122L84.5847 196.167Z" fill="#FF681C"/>
<path d="M81.4954 218.533C85.6951 218.885 88.2483 214.931 88.7487 209.748C88.8 209.173 88.8218 208.596 88.814 208.02C88.8226 206.334 88.6326 204.653 88.2483 203.012C86.4059 195.075 75.1923 198.253 75.1923 198.253C66.4158 202.236 74.1986 217.926 81.4954 218.533Z" fill="#EC9C7D"/>
<path d="M76.707 212.678C77.4323 215.021 80.486 219.157 83.9603 218.191C83.5506 218.939 83.359 219.79 83.4078 220.643C83.4566 221.497 83.7437 222.32 84.2359 223.016C84.2359 223.016 83.1044 225.944 75.4521 221.625C75.4521 221.625 77.5194 221.449 76.9536 217.158C76.7883 215.685 76.2732 214.273 75.4521 213.044C75.5432 213.146 75.6611 213.221 75.7922 213.259C75.9233 213.297 76.0623 213.296 76.1933 213.258C76.3244 213.22 76.442 213.145 76.5329 213.043C76.6237 212.94 76.6841 212.813 76.707 212.678Z" fill="#D68369"/>
<path d="M84.4971 198.085C83.4018 201.921 81.9439 207.368 78.2302 209.47C77.7245 209.816 77.1293 210.004 76.5184 210.011C75.9527 209.894 76.0035 209.44 75.5683 209.038C75.4243 208.891 75.2387 208.793 75.0373 208.758C74.8359 208.723 74.6286 208.751 74.444 208.84C74.2899 208.958 74.1674 209.113 74.0876 209.29C74.0078 209.468 73.9732 209.663 73.987 209.858C73.986 210.328 74.1048 210.79 74.3322 211.201C74.5596 211.611 74.8879 211.955 75.2854 212.201C75.653 212.369 76.0049 212.57 76.3371 212.801C76.7049 213.17 76.9266 213.662 76.9609 214.185C77.0228 214.888 76.8844 215.594 76.5618 216.221C76.2393 216.847 75.7461 217.368 75.1403 217.721C75.0681 217.772 74.9821 217.801 74.8937 217.801C74.7865 217.781 74.6894 217.724 74.6181 217.64L72.9571 216.11C72.1689 215.431 71.4585 214.665 70.8391 213.826C70.0734 212.69 69.6616 211.349 69.6568 209.975C69.6568 209.352 69.8962 208.73 69.8889 208.13C69.7871 207.341 69.5797 206.57 69.2724 205.838C68.9027 204.894 68.7132 203.888 68.7139 202.873C68.8444 200.881 70.4837 199.307 72.2535 198.421C75.0533 197.023 78.281 196.869 81.3999 196.833C82.0244 196.79 82.651 196.874 83.2423 197.082C83.779 197.309 83.9966 197.902 84.4971 198.085Z" fill="#FF681C"/>
<path d="M77.0635 246.363L73.8576 253.48C73.8576 253.48 66.9379 244.796 64.334 235.425C62.0419 227.144 66.111 225.058 66.111 225.058C69.2154 223.908 71.3334 228.382 74.3943 237.431C76.0771 242.41 77.0635 246.363 77.0635 246.363Z" fill="#EC9C7D"/>
<path d="M73.8573 253.479C73.8573 253.479 73.734 247.695 76.5265 246.546C79.319 245.396 98.8885 242.299 98.8885 242.299L100.724 244.437C100.724 244.437 81.5095 255.617 73.8573 253.479Z" fill="#EC9C7D"/>
<path d="M105.568 268.745C105.496 268.657 105.416 268.576 105.336 268.496C106.286 269.572 106.924 270.348 107.12 270.59C106.634 269.967 106.119 269.338 105.568 268.745Z" fill="#DC9BD5"/>
<path d="M68.091 269.88C68.664 273.255 70.9416 276.147 73.7124 278.11C76.4831 280.072 79.7254 281.228 82.9676 282.217C84.8897 282.81 86.0793 285.292 87.8128 286.324C88.443 286.633 88.9884 287.093 89.4013 287.664C90.0323 288.696 89.7132 290.022 89.4013 291.186C87.9506 296.33 86.4782 301.477 84.984 306.627C84.2587 309.182 83.5334 311.891 84.2152 314.461C84.897 317.031 87.588 319.242 90.0831 318.392C94.9719 310.431 99.8558 302.473 104.735 294.517C104.735 294.517 107.143 284.911 102.087 276.74C99.9114 273.219 82.8153 258.693 82.8153 258.693C78.4633 258.056 74.0025 257.756 69.7593 257.507C69.2806 261.673 67.3947 265.758 68.091 269.88Z" fill="#68E1FD"/>
<path d="M82.7773 258.692C82.7773 258.692 100.185 273.021 102.049 276.74C107.127 287.114 104.697 294.517 104.697 294.517L117.514 315.302C120.48 315.368 124.455 314.57 124.6 311.568C124.584 310.725 124.386 309.896 124.02 309.138C120.804 301.045 117.588 292.957 114.373 284.874C112.465 280.064 110.492 275.151 107.439 271.022L107.163 270.663L107.127 270.619C106.931 270.378 106.293 269.601 105.342 268.525C102.572 265.392 97.1607 259.798 92.1559 257.543C92.1559 257.543 86.3532 259.168 82.8499 258.729L82.7773 258.692Z" fill="#68E1FD"/>
<path d="M82.7773 258.692C82.7773 258.692 100.185 273.021 102.049 276.74C107.127 287.114 104.697 294.517 104.697 294.517L117.514 315.302C120.48 315.368 124.455 314.57 124.6 311.568C124.584 310.725 124.386 309.896 124.02 309.138C120.804 301.045 117.588 292.957 114.373 284.874C112.465 280.064 110.492 275.151 107.439 271.022L107.163 270.663L107.127 270.619C106.931 270.378 106.293 269.601 105.342 268.525C102.572 265.392 97.1607 259.798 92.1559 257.543C92.1559 257.543 86.3532 259.168 82.8499 258.729L82.7773 258.692Z" fill="url(#paint2_linear_874_115)"/>
<path d="M91.7294 322.932C92.8754 324.001 94.3986 325.062 94.3406 326.637C94.3469 326.793 94.3037 326.946 94.2173 327.076C94.1388 327.154 94.0459 327.215 93.9438 327.257C93.8417 327.298 93.7325 327.319 93.6225 327.317C90.1046 327.713 86.8406 325.553 84.1061 323.283C83.3546 322.783 82.7983 322.035 82.5322 321.167C82.4991 320.248 82.7528 319.342 83.2575 318.576C83.9097 317.251 84.4391 315.869 84.8387 314.446C84.7227 314.871 86.4925 316.372 86.7899 316.643C87.4136 317.199 88.3493 317.602 88.8425 318.283C89.2049 318.983 89.527 319.705 89.8072 320.443C90.3137 321.37 90.9624 322.21 91.7294 322.932Z" fill="#EC9C7D"/>
<path d="M128.047 316.292C129.28 316.732 130.716 316.973 131.499 318.035C131.649 318.223 131.74 318.453 131.76 318.694C131.76 319.345 131.035 319.704 130.375 319.836C127.836 320.356 125.211 319.99 122.65 319.616C122.318 319.593 121.995 319.493 121.707 319.323C121.367 319.017 121.133 318.609 121.04 318.159L120.024 315.018C119.996 314.923 119.996 314.821 120.024 314.725C120.063 314.628 120.135 314.547 120.228 314.498C120.912 314.01 121.64 313.588 122.404 313.239C123.448 312.763 123.513 312.785 124.217 313.613C125.241 314.827 126.561 315.75 128.047 316.292Z" fill="#EC9C7D"/>
<path d="M100.992 241.883C103.008 241.561 105.286 241.297 106.925 242.534C107.704 243.207 108.34 244.031 108.796 244.958C109.034 245.17 109.201 245.452 109.272 245.764C109.344 246.076 109.317 246.403 109.195 246.698C109.074 246.994 108.864 247.245 108.595 247.414C108.326 247.584 108.011 247.665 107.694 247.645C105.83 248.099 103.821 248.531 102.029 247.82C100.709 247.301 99.6427 246.195 98.2645 245.866C98.0294 245.831 97.8029 245.751 97.5972 245.631C97.4069 245.473 97.2721 245.258 97.2128 245.016C96.3859 242.241 99.1567 242.146 100.992 241.883Z" fill="#EC9C7D"/>
<path d="M122.672 322.001C122.744 322.146 122.851 322.27 122.984 322.36C123.192 322.426 123.415 322.426 123.623 322.36C124.769 322.201 125.928 322.16 127.082 322.236C129.431 322.198 131.773 321.98 134.089 321.584C135.105 321.438 136.229 321.218 136.816 320.376C136.892 320.281 136.94 320.167 136.954 320.047C136.95 319.863 136.877 319.688 136.751 319.556C135.731 318.324 134.393 317.402 132.885 316.891C132.324 316.653 131.724 316.522 131.115 316.503C130.811 316.5 130.511 316.564 130.234 316.69C129.957 316.817 129.711 317.003 129.512 317.235C129.092 317.77 129.034 318.538 128.562 319.022C128.291 319.236 127.98 319.393 127.647 319.483C127.314 319.572 126.966 319.592 126.626 319.541C125.827 319.511 125.031 319.418 124.246 319.263C123.644 319.146 122.796 318.736 122.179 318.897C120.816 319.249 122.266 321.299 122.672 322.001Z" fill="#68E1FD"/>
<path d="M81.669 322.99C81.6392 323.174 81.6618 323.362 81.7343 323.532C81.8807 323.733 82.0905 323.878 82.3291 323.942C83.5184 324.532 84.6459 325.241 85.6946 326.058C87.9433 327.531 90.3003 328.828 92.7449 329.939C93.8039 330.451 95.0079 330.971 96.0959 330.546C96.2287 330.505 96.347 330.426 96.4368 330.319C96.545 330.142 96.5862 329.932 96.5529 329.726C96.3594 327.902 95.6717 326.167 94.5654 324.711C94.1737 324.138 93.6822 323.642 93.1148 323.247C92.8294 323.047 92.5043 322.913 92.1623 322.854C91.8203 322.795 91.4696 322.811 91.1346 322.903C90.4093 323.137 89.858 323.832 89.1037 323.986C88.7107 324.02 88.3151 323.972 87.941 323.846C87.5668 323.72 87.2221 323.519 86.9277 323.254C86.1891 322.711 85.4909 322.114 84.8387 321.468C84.3528 320.97 83.787 320.003 83.1125 319.784C81.64 319.183 81.7198 322.068 81.669 322.99Z" fill="#68E1FD"/>
<path d="M63.093 227.892C62.6019 229.407 62.2689 230.97 62.0993 232.556L61.7947 234.701C61.6903 235.143 61.7155 235.606 61.8672 236.033C62.2153 236.765 63.6297 236.48 64.3261 236.59L68.076 237.19C70.5712 237.576 73.0736 237.947 75.5832 238.303C75.7262 237.014 75.7018 235.712 75.5107 234.43C75.2858 233.214 74.7853 232.072 74.4662 230.872C74.2268 229.898 74.1398 228.887 73.8932 227.943C73.3655 225.89 72.1573 224.081 70.4696 222.818C67.8367 220.87 63.9416 225.578 63.1655 227.701C63.137 227.763 63.1128 227.827 63.093 227.892Z" fill="#4C506D"/>
<path d="M231.936 311.312H228.73V281.382H231.936V311.312Z" fill="#4C506D"/>
<path d="M250.337 314.894H214.73V310.698H250.337V314.894Z" fill="#4C506D"/>
<path d="M250.337 314.894H214.73V310.698H250.337V314.894Z" fill="#2F3554"/>
<path d="M218.778 281.389H238.681C241.669 281.389 244.092 278.944 244.092 275.927C244.092 272.911 241.669 270.466 238.681 270.466H218.778C215.789 270.466 213.367 272.911 213.367 275.927C213.367 278.944 215.789 281.389 218.778 281.389Z" fill="#4C506D"/>
<path d="M225.199 281.389H245.102C248.09 281.389 250.513 278.944 250.513 275.927C250.513 272.911 248.09 270.466 245.102 270.466H225.199C222.21 270.466 219.788 272.911 219.788 275.927C219.788 278.944 222.21 281.389 225.199 281.389Z" fill="#2F3554"/>
<path d="M204.634 230.081V240.485C204.633 241.399 204.81 242.304 205.156 243.149C205.502 243.993 206.01 244.761 206.649 245.408C207.289 246.054 208.049 246.567 208.886 246.917C209.722 247.267 210.619 247.447 211.524 247.447H221.824C222.992 247.45 224.141 247.15 225.161 246.576C226.008 246.106 226.749 245.462 227.337 244.687C228.251 243.481 228.743 242.003 228.737 240.485V230.081C228.737 229.167 228.558 228.262 228.211 227.417C227.865 226.573 227.356 225.806 226.716 225.16C226.075 224.514 225.315 224.002 224.478 223.653C223.641 223.304 222.744 223.124 221.839 223.125H211.539C211.231 223.122 210.923 223.142 210.618 223.184C208.962 223.406 207.442 224.228 206.341 225.496C205.24 226.765 204.633 228.394 204.634 230.081Z" fill="#4C506D"/>
<path d="M207.536 240.541C207.674 241.64 208.072 242.69 208.696 243.602C210.56 246.179 214.187 246.494 217.342 246.574C219.692 246.633 227.889 248.412 227.301 244.436C226.989 242.35 225.749 240.139 225.125 238.125C224.501 236.112 223.181 233.505 223.181 231.47C222.744 229.538 222.157 227.643 221.426 225.803C221.011 224.844 220.474 223.943 219.83 223.123H211.532C211.241 223.107 210.95 223.139 210.669 223.219C211.01 226.023 209.175 227.992 208.159 230.438C207.253 232.634 207.275 235.043 207.304 237.393C207.305 238.447 207.382 239.499 207.536 240.541Z" fill="#2F3554"/>
<path d="M225.27 211.799C226.844 213.996 231.631 216.068 231.631 216.068C232.182 213.915 231.007 213.139 231.007 213.139C229.781 213.249 228.171 210.21 228.693 209.281C229.346 208.094 230.245 208.548 230.869 209.032C231.489 208.543 232.002 207.931 232.377 207.233C232.751 206.535 232.979 205.766 233.045 204.976C233.118 204.046 231.529 201.417 234.576 200.282C237.622 199.148 241.923 200.282 241.923 200.282C241.923 200.282 243.026 197.405 239.479 196.036C236.578 194.923 232.284 195.575 229.281 195.926C227.657 196.011 226.079 196.493 224.682 197.332C222.673 198.723 221.781 201.264 221.396 203.694C221.012 206.125 221.019 208.636 220.25 210.972C219.83 212.268 219.162 213.512 219.126 214.874C219.09 216.236 220.004 217.803 221.353 217.766C221.875 217.766 222.448 217.532 222.898 217.81C223.347 218.088 223.435 218.835 223.841 219.274C224.566 220.007 225.792 219.274 226.815 219.04C228.149 218.762 229.636 219.509 230.84 218.879C231.341 218.615 231.754 218.147 232.291 218.074C233.016 218 233.618 218.674 234.343 218.762C235.584 218.916 236.519 217.371 237.753 217.407C238.304 217.498 238.837 217.684 239.327 217.957C239.776 218.101 240.25 218.153 240.719 218.107C241.189 218.062 241.644 217.92 242.058 217.691C242.472 217.463 242.835 217.152 243.126 216.777C243.417 216.402 243.63 215.971 243.751 215.511C243.844 215.583 243.95 215.633 244.063 215.66C244.177 215.687 244.294 215.69 244.409 215.668C244.523 215.646 244.631 215.599 244.727 215.532C244.822 215.465 244.903 215.378 244.962 215.277C245.19 214.857 245.286 214.377 245.238 213.9C245.238 209.808 246.37 203.409 243.265 200.151C240.922 197.683 237.165 197.076 233.836 197.661C231.159 198.137 225.132 199.631 223.862 202.135C222.593 204.639 223.696 209.617 225.27 211.799Z" fill="#32384F"/>
<path d="M250.599 248.435C248.075 241.846 245.667 234.18 245.667 234.18L243.803 221.148C250.164 220.709 252.137 228.828 253.515 233.221C254.668 236.882 257.736 245.668 258.716 248.435H250.599Z" fill="#D68369"/>
<path d="M277.363 246.897C275.717 248.933 272.743 249.094 270.11 249.094L257.33 249.05C256.829 249.101 256.324 249.002 255.879 248.764C255.523 248.483 255.252 248.108 255.095 247.681C254.537 246.465 252.071 241.487 253.086 240.359C254.102 239.232 259.056 241.384 260.34 241.743C266.05 243.354 271.725 245.072 277.363 246.897Z" fill="#D68369"/>
<path d="M247.98 221.895C249.14 222.844 250.122 223.994 250.881 225.292L259.419 238.075C259.815 238.817 260.36 239.468 261.019 239.985C261.679 240.502 262.438 240.874 263.248 241.077L271.677 244.262C271.974 244.372 272.301 244.518 272.402 244.811C272.504 245.104 272.235 245.543 271.974 245.829L268.87 249.109C268.569 249.486 268.17 249.77 267.716 249.929C267.259 249.998 266.792 249.937 266.367 249.753L249.866 244.401C249.337 244.264 248.842 244.014 248.415 243.669C247.69 242.981 247.567 241.846 247.501 240.828C247.381 237.97 246.893 235.14 246.051 232.409C245.086 229.531 243.461 226.8 243.091 223.747C242.961 222.715 242.721 221.331 243.751 220.767C244.781 220.204 247.095 221.258 247.98 221.895Z" fill="#68E1FD"/>
<path d="M243.802 221.148C240.335 221.465 236.853 221.597 233.372 221.543C229.861 221.441 224.095 221.067 220.954 224.926C217.059 229.714 220.417 238.105 223.13 244.445C224.146 246.795 224.646 254.431 224.116 260.01C224.116 260.01 235.055 263.869 244.672 261.855L247.973 249.358C247.973 249.358 257.177 235.601 243.802 221.148Z" fill="#68E1FD"/>
<path d="M239.451 196.021C239.451 196.021 244.093 196.3 245.471 203.079C246.849 209.859 240.147 209.757 240.147 209.757L236.078 197.984L239.451 196.021Z" fill="#32384F"/>
<path d="M236.367 218.403C240.567 218.754 243.12 214.793 243.621 209.617C243.671 209.053 243.693 208.475 243.693 207.889C243.699 206.203 243.507 204.521 243.12 202.881C241.285 194.944 230.064 198.122 230.064 198.122C221.317 202.105 229.07 217.795 236.367 218.403Z" fill="#EC9C7D"/>
<path d="M231.587 212.547C232.312 214.89 235.366 219.026 238.84 218.06C238.43 218.809 238.239 219.66 238.289 220.514C238.339 221.368 238.628 222.19 239.123 222.885C239.123 222.885 237.984 225.813 230.332 221.486C230.332 221.486 232.399 221.318 231.833 217.028C231.672 215.553 231.157 214.141 230.332 212.913C230.423 213.015 230.541 213.09 230.672 213.128C230.803 213.166 230.942 213.165 231.073 213.127C231.204 213.089 231.322 213.014 231.413 212.912C231.504 212.809 231.564 212.683 231.587 212.547Z" fill="#D68369"/>
<path d="M239.369 197.954C238.281 201.79 236.816 207.237 233.109 209.338C232.6 209.683 232.003 209.872 231.39 209.88C230.824 209.763 230.882 209.309 230.44 208.907C230.296 208.759 230.111 208.661 229.909 208.625C229.708 208.59 229.5 208.619 229.316 208.709C229.162 208.827 229.04 208.982 228.96 209.16C228.88 209.337 228.845 209.532 228.859 209.727C228.857 210.197 228.976 210.659 229.205 211.069C229.434 211.478 229.765 211.821 230.164 212.062C230.53 212.233 230.879 212.436 231.209 212.67C231.578 213.038 231.8 213.531 231.833 214.054C231.895 214.756 231.758 215.462 231.437 216.088C231.115 216.715 230.624 217.236 230.019 217.59C229.944 217.641 229.856 217.67 229.765 217.67C229.658 217.649 229.561 217.593 229.49 217.509L227.843 215.979C227.051 215.302 226.338 214.535 225.718 213.695C224.955 212.557 224.544 211.217 224.536 209.844C224.536 209.221 224.775 208.592 224.768 207.999C224.665 207.211 224.46 206.441 224.159 205.707C223.789 204.763 223.597 203.757 223.593 202.742C223.731 200.75 225.363 199.169 227.132 198.29C229.932 196.892 233.16 196.731 236.286 196.702C236.908 196.659 237.532 196.744 238.121 196.951C238.651 197.177 238.876 197.771 239.369 197.954Z" fill="#32384F"/>
<path d="M231.936 246.231L228.73 253.341C228.73 253.341 221.81 244.665 219.214 235.293C216.914 227.005 220.984 224.926 220.984 224.926C224.095 223.776 226.213 228.25 229.267 237.299C230.95 242.278 231.936 246.231 231.936 246.231Z" fill="#EC9C7D"/>
<path d="M228.731 253.342C228.731 253.342 228.608 247.565 231.4 246.415C234.193 245.266 253.762 242.169 253.762 242.169L255.605 244.307C255.605 244.307 236.384 255.487 228.731 253.342Z" fill="#EC9C7D"/>
<path d="M217.691 233.273C217.247 237.214 218.098 241.194 220.114 244.599C220.584 245.458 221.189 246.235 221.905 246.898C222.781 247.605 223.79 248.123 224.872 248.421C227.603 249.144 230.428 249.443 233.249 249.307C238.276 249.307 243.288 248.977 248.3 248.677C248.975 248.688 249.644 248.548 250.258 248.267C250.852 247.874 251.349 247.348 251.709 246.73C251.858 246.545 251.96 246.326 252.006 246.093C252.009 245.834 251.938 245.58 251.803 245.361L250.171 241.956C250.122 241.79 250.034 241.637 249.916 241.511C249.797 241.384 249.651 241.287 249.49 241.227C249.328 241.168 249.154 241.147 248.983 241.167C248.812 241.186 248.648 241.246 248.503 241.341C244.409 242.422 240.23 243.145 236.013 243.501C235.549 243.578 235.073 243.528 234.635 243.354C234.342 243.168 234.094 242.918 233.909 242.622C232.742 241.012 232.205 239.035 231.646 237.117C230.537 233.265 229.296 229.297 227.171 225.871C226.33 224.516 224.959 222.942 223.218 223.674C221.651 224.319 220.396 226.259 219.591 227.679C218.605 229.402 217.96 231.302 217.691 233.273Z" fill="#68E1FD"/>
<path d="M265.657 234.547H306.529C307.154 234.538 307.755 234.299 308.217 233.874C308.679 233.449 308.971 232.868 309.039 232.241L311.78 200.963C311.811 200.669 311.78 200.372 311.688 200.091C311.596 199.81 311.446 199.552 311.248 199.335C311.049 199.117 310.807 198.945 310.538 198.829C310.268 198.714 309.977 198.657 309.684 198.664H268.812C268.189 198.673 267.59 198.912 267.129 199.335C266.668 199.759 266.377 200.338 266.309 200.963L263.56 232.241C263.529 232.535 263.561 232.833 263.653 233.114C263.745 233.395 263.895 233.653 264.093 233.871C264.291 234.089 264.533 234.262 264.803 234.379C265.072 234.495 265.363 234.553 265.657 234.547Z" fill="#68E1FD"/>
<path d="M267.237 234.547H308.11C308.734 234.538 309.334 234.298 309.795 233.873C310.256 233.448 310.547 232.867 310.612 232.241L313.361 200.963C313.392 200.669 313.361 200.372 313.269 200.091C313.177 199.81 313.027 199.552 312.829 199.335C312.63 199.117 312.388 198.945 312.119 198.829C311.849 198.714 311.558 198.657 311.265 198.664H270.393C269.769 198.673 269.169 198.911 268.707 199.335C268.245 199.758 267.952 200.337 267.883 200.963L265.141 232.241C265.109 232.535 265.14 232.833 265.231 233.115C265.322 233.397 265.472 233.655 265.671 233.874C265.869 234.092 266.112 234.265 266.382 234.381C266.652 234.497 266.944 234.554 267.237 234.547Z" fill="white"/>
<path d="M298.362 247.022H286.496V227.379C286.496 225.791 287.121 224.267 288.234 223.144C289.346 222.021 290.856 221.39 292.429 221.39C294.003 221.39 295.512 222.021 296.625 223.144C297.737 224.267 298.362 225.791 298.362 227.379V247.022Z" fill="#68E1FD"/>
<path d="M301.117 247.022H289.265V227.379C289.265 225.791 289.891 224.267 291.003 223.144C292.116 222.021 293.625 221.39 295.199 221.39C296.772 221.39 298.281 222.021 299.394 223.144C300.507 224.267 301.132 225.791 301.132 227.379V247.022H301.117Z" fill="white"/>
<path d="M260.484 268.614L260.245 268.365C261.195 269.441 261.834 270.217 262.029 270.451C261.514 269.822 260.992 269.236 260.484 268.614Z" fill="#DC9BD5"/>
<path d="M222.97 269.748C223.543 273.124 225.814 276.008 228.584 277.978C231.355 279.947 234.605 281.089 237.847 282.085C239.762 282.678 240.951 285.153 242.685 286.185C243.313 286.496 243.858 286.956 244.273 287.525C244.904 288.557 244.585 289.89 244.273 291.054C242.823 296.198 241.353 301.343 239.863 306.488C239.138 309.05 238.413 311.759 239.087 314.322C239.762 316.884 242.46 319.11 244.962 318.261L259.607 294.378C259.607 294.378 262.015 284.779 256.959 276.609C254.783 273.087 237.695 258.561 237.695 258.561C233.343 257.917 228.875 257.624 224.639 257.375C224.153 261.541 222.274 265.619 222.97 269.748Z" fill="#4C506D"/>
<path d="M237.674 258.561C237.674 258.561 255.082 272.889 256.939 276.608C262.059 286.983 259.586 294.377 259.586 294.377L272.403 315.17C275.369 315.236 279.344 314.438 279.496 311.436C279.476 310.594 279.279 309.765 278.916 309.006C275.696 300.918 272.48 292.83 269.269 284.742C267.354 279.925 265.382 275.019 262.328 270.89L262.06 270.531L262.023 270.48C261.827 270.246 261.189 269.47 260.239 268.393C257.468 265.26 252.05 259.666 247.045 257.411C247.045 257.411 241.242 259.029 237.739 258.597L237.674 258.561Z" fill="#2F3554"/>
<path d="M246.609 322.799C247.747 323.86 249.271 324.929 249.22 326.459C249.226 326.615 249.183 326.769 249.097 326.899C248.939 327.058 248.725 327.147 248.502 327.148C244.984 327.543 241.713 325.376 238.978 323.106C238.227 322.607 237.673 321.858 237.411 320.99C237.376 320.073 237.63 319.168 238.137 318.406C238.783 317.079 239.312 315.697 239.718 314.276C239.595 314.701 241.365 316.202 241.662 316.473C242.293 317.029 243.221 317.432 243.715 318.113C244.078 318.813 244.4 319.534 244.679 320.273C245.189 321.21 245.84 322.063 246.609 322.799Z" fill="#EC9C7D"/>
<path d="M282.92 316.16C284.153 316.599 285.589 316.841 286.372 317.895C286.527 318.083 286.619 318.317 286.633 318.561C286.633 319.213 285.908 319.572 285.248 319.703C282.709 320.223 280.091 319.85 277.53 319.484C277.195 319.459 276.87 319.356 276.58 319.184C276.24 318.88 276.006 318.475 275.913 318.027L274.897 314.879C274.869 314.783 274.869 314.681 274.897 314.586C274.941 314.493 275.012 314.416 275.101 314.366C275.786 313.878 276.515 313.454 277.277 313.099C278.314 312.631 278.386 312.653 279.083 313.48C280.11 314.694 281.432 315.617 282.92 316.16Z" fill="#EC9C7D"/>
<path d="M255.863 241.743C257.887 241.421 260.157 241.158 261.797 242.402C262.574 243.074 263.21 243.895 263.668 244.818C263.909 245.03 264.078 245.312 264.151 245.626C264.224 245.939 264.198 246.268 264.076 246.566C263.955 246.863 263.743 247.115 263.472 247.285C263.201 247.455 262.884 247.535 262.566 247.513C260.701 247.967 258.692 248.399 256.908 247.688C255.588 247.169 254.514 246.063 253.136 245.734C252.901 245.699 252.675 245.619 252.469 245.499C252.28 245.341 252.148 245.125 252.092 244.884C251.265 242.102 254.036 242.036 255.863 241.743Z" fill="#EC9C7D"/>
<path d="M277.552 321.863C277.619 322.011 277.727 322.136 277.864 322.222C278.068 322.295 278.291 322.295 278.495 322.222C279.643 322.066 280.805 322.026 281.962 322.105C284.308 322.067 286.648 321.849 288.961 321.453C289.977 321.307 291.101 321.087 291.696 320.245C291.769 320.146 291.816 320.031 291.833 319.908C291.821 319.728 291.747 319.557 291.623 319.425C290.605 318.192 289.266 317.269 287.757 316.76C287.198 316.523 286.601 316.392 285.995 316.372C285.69 316.37 285.388 316.434 285.11 316.56C284.832 316.686 284.584 316.872 284.384 317.104C283.971 317.646 283.913 318.415 283.434 318.898C283.164 319.111 282.854 319.268 282.522 319.357C282.19 319.446 281.844 319.467 281.505 319.418C280.704 319.384 279.906 319.291 279.118 319.14C278.524 319.023 277.668 318.613 277.051 318.766C275.717 319.118 277.167 321.168 277.552 321.863Z" fill="#68E1FD"/>
<path d="M236.549 322.859C236.518 323.043 236.543 323.232 236.621 323.401C236.769 323.601 236.978 323.745 237.216 323.811C238.405 324.398 239.53 325.107 240.574 325.927C242.829 327.394 245.188 328.691 247.632 329.807C248.684 330.32 249.888 330.84 250.983 330.415C251.114 330.369 251.231 330.291 251.324 330.188C251.429 330.01 251.468 329.799 251.433 329.595C251.247 327.769 250.558 326.031 249.445 324.58C249.055 324.005 248.564 323.509 247.995 323.115C247.71 322.915 247.385 322.78 247.043 322.719C246.701 322.658 246.35 322.674 246.014 322.764C245.289 323.006 244.745 323.701 243.983 323.855C243.59 323.892 243.194 323.846 242.819 323.72C242.445 323.593 242.1 323.39 241.807 323.123C241.065 322.581 240.367 321.981 239.718 321.329C239.225 320.838 238.659 319.865 237.992 319.652C236.549 319.023 236.6 321.951 236.549 322.859Z" fill="#68E1FD"/>
<path d="M19.1377 255.178V324.344C19.1377 325.669 20.0081 326.753 21.0816 326.753H50.929C52.0025 326.753 52.8729 325.669 52.8729 324.344V255.178C52.8626 255.057 52.8992 254.937 52.975 254.842C53.0507 254.748 53.1598 254.687 53.2791 254.673H284.856C284.975 254.687 285.084 254.748 285.16 254.842C285.236 254.937 285.272 255.057 285.262 255.178V315.602C285.594 315.784 285.936 315.947 286.285 316.093L286.8 316.261V255.178C286.8 255.008 286.786 254.839 286.756 254.673H317.061C317.18 254.687 317.289 254.748 317.365 254.842C317.441 254.937 317.477 255.057 317.467 255.178V324.344C317.477 324.466 317.441 324.587 317.365 324.682C317.29 324.778 317.181 324.84 317.061 324.857H287.206C287.086 324.84 286.977 324.778 286.901 324.682C286.826 324.587 286.789 324.466 286.8 324.344V322.572C286.3 322.716 285.774 322.743 285.262 322.653V324.344C285.262 325.669 286.132 326.753 287.206 326.753H317.061C318.134 326.753 319.005 325.669 319.005 324.344V255.178C319.005 253.853 318.134 252.776 317.061 252.776H21.1251C20.0081 252.776 19.1377 253.86 19.1377 255.178ZM20.6681 255.178C20.658 255.056 20.6956 254.935 20.7728 254.84C20.8501 254.746 20.9609 254.686 21.0816 254.673H51.3787C51.3492 254.839 51.3346 255.008 51.3352 255.178V324.344C51.3456 324.466 51.3092 324.587 51.2336 324.682C51.158 324.778 51.0489 324.84 50.929 324.857H21.0816C20.9603 324.842 20.8495 324.78 20.7724 324.685C20.6952 324.589 20.6579 324.467 20.6681 324.344V255.178Z" fill="white"/>
<path d="M19.1377 255.178V324.344C19.1377 325.669 20.0081 326.753 21.0816 326.753H50.929C52.0025 326.753 52.8729 325.669 52.8729 324.344V255.178C52.8626 255.057 52.8992 254.937 52.975 254.842C53.0507 254.748 53.1598 254.687 53.2791 254.673H284.856C284.975 254.687 285.084 254.748 285.16 254.842C285.236 254.937 285.272 255.057 285.262 255.178V315.602C285.594 315.784 285.936 315.947 286.285 316.093L286.8 316.261V255.178C286.8 255.008 286.786 254.839 286.756 254.673H317.061C317.18 254.687 317.289 254.748 317.365 254.842C317.441 254.937 317.477 255.057 317.467 255.178V324.344C317.477 324.466 317.441 324.587 317.365 324.682C317.29 324.778 317.181 324.84 317.061 324.857H287.206C287.086 324.84 286.977 324.778 286.901 324.682C286.826 324.587 286.789 324.466 286.8 324.344V322.572C286.3 322.716 285.774 322.743 285.262 322.653V324.344C285.262 325.669 286.132 326.753 287.206 326.753H317.061C318.134 326.753 319.005 325.669 319.005 324.344V255.178C319.005 253.853 318.134 252.776 317.061 252.776H21.1251C20.0081 252.776 19.1377 253.86 19.1377 255.178ZM20.6681 255.178C20.658 255.056 20.6956 254.935 20.7728 254.84C20.8501 254.746 20.9609 254.686 21.0816 254.673H51.3787C51.3492 254.839 51.3346 255.008 51.3352 255.178V324.344C51.3456 324.466 51.3092 324.587 51.2336 324.682C51.158 324.778 51.0489 324.84 50.929 324.857H21.0816C20.9603 324.842 20.8495 324.78 20.7724 324.685C20.6952 324.589 20.6579 324.467 20.6681 324.344V255.178Z" fill="url(#paint3_linear_874_115)"/>
<path d="M21.0816 326.753H50.929C52.0025 326.753 52.8729 325.67 52.8729 324.344V255.178C52.8626 255.057 52.8992 254.937 52.975 254.843C53.0507 254.749 53.1598 254.688 53.2791 254.673H317.061C317.181 254.686 317.292 254.746 317.369 254.841C317.447 254.935 317.484 255.056 317.474 255.178V324.344C317.484 324.466 317.447 324.588 317.369 324.682C317.292 324.777 317.181 324.837 317.061 324.85C316.845 324.897 316.652 325.017 316.514 325.19C316.375 325.363 316.3 325.579 316.3 325.801C316.3 326.024 316.375 326.24 316.514 326.413C316.652 326.586 316.845 326.706 317.061 326.753C318.134 326.753 319.005 325.67 319.005 324.344V255.178C319.005 253.853 318.134 252.77 317.061 252.77H53.2791C52.2056 252.77 51.3352 253.853 51.3352 255.178V324.344C51.3455 324.465 51.3089 324.586 51.2331 324.68C51.1574 324.774 51.0483 324.835 50.929 324.85H21.0816C20.9609 324.837 20.8501 324.777 20.7728 324.682C20.6956 324.588 20.658 324.466 20.6681 324.344V255.178C20.658 255.056 20.6956 254.935 20.7728 254.841C20.8501 254.746 20.9609 254.686 21.0816 254.673C21.2971 254.626 21.4901 254.506 21.6286 254.333C21.767 254.16 21.8425 253.944 21.8425 253.721C21.8425 253.499 21.767 253.283 21.6286 253.11C21.4901 252.937 21.2971 252.817 21.0816 252.77C20.0081 252.77 19.1377 253.853 19.1377 255.178V324.344C19.1377 325.67 20.0081 326.753 21.0816 326.753Z" fill="white"/>
<path d="M21.0816 326.753H50.929C52.0025 326.753 52.8729 325.67 52.8729 324.344V255.178C52.8626 255.057 52.8992 254.937 52.975 254.843C53.0507 254.749 53.1598 254.688 53.2791 254.673H317.061C317.181 254.686 317.292 254.746 317.369 254.841C317.447 254.935 317.484 255.056 317.474 255.178V324.344C317.484 324.466 317.447 324.588 317.369 324.682C317.292 324.777 317.181 324.837 317.061 324.85C316.845 324.897 316.652 325.017 316.514 325.19C316.375 325.363 316.3 325.579 316.3 325.801C316.3 326.024 316.375 326.24 316.514 326.413C316.652 326.586 316.845 326.706 317.061 326.753C318.134 326.753 319.005 325.67 319.005 324.344V255.178C319.005 253.853 318.134 252.77 317.061 252.77H53.2791C52.2056 252.77 51.3352 253.853 51.3352 255.178V324.344C51.3455 324.465 51.3089 324.586 51.2331 324.68C51.1574 324.774 51.0483 324.835 50.929 324.85H21.0816C20.9609 324.837 20.8501 324.777 20.7728 324.682C20.6956 324.588 20.658 324.466 20.6681 324.344V255.178C20.658 255.056 20.6956 254.935 20.7728 254.841C20.8501 254.746 20.9609 254.686 21.0816 254.673C21.2971 254.626 21.4901 254.506 21.6286 254.333C21.767 254.16 21.8425 253.944 21.8425 253.721C21.8425 253.499 21.767 253.283 21.6286 253.11C21.4901 252.937 21.2971 252.817 21.0816 252.77C20.0081 252.77 19.1377 253.853 19.1377 255.178V324.344C19.1377 325.67 20.0081 326.753 21.0816 326.753Z" fill="url(#paint4_linear_874_115)"/>
<path d="M318.889 252.748H50.2045V249.138H321.051V250.566C321.047 251.143 320.818 251.696 320.413 252.104C320.009 252.513 319.461 252.744 318.889 252.748Z" fill="white"/>
<path d="M50.1963 252.748H19.2536C18.6765 252.748 18.123 252.516 17.715 252.104C17.3069 251.692 17.0776 251.134 17.0776 250.551V248.23H50.1963V252.733V252.748Z" fill="white"/>
<path d="M45.8818 247.191H322.69C322.851 247.211 322.997 247.293 323.099 247.42C323.2 247.547 323.249 247.709 323.234 247.872V249.878C323.249 250.04 323.2 250.202 323.099 250.329C322.997 250.456 322.851 250.539 322.69 250.559H45.8818V247.191Z" fill="#68E1FD"/>
<path d="M15.5407 247.191H51.4446C51.605 247.211 51.7514 247.293 51.8529 247.42C51.9544 247.547 52.003 247.709 51.9886 247.872V249.878C52.003 250.04 51.9544 250.202 51.8529 250.329C51.7514 250.456 51.605 250.539 51.4446 250.559H15.5407C15.3533 250.537 15.1819 250.442 15.0627 250.294C14.9435 250.146 14.886 249.958 14.9024 249.768V248.004C14.8913 247.908 14.899 247.811 14.9251 247.718C14.9512 247.626 14.9951 247.539 15.0544 247.464C15.1137 247.388 15.1872 247.325 15.2706 247.278C15.3541 247.232 15.4458 247.202 15.5407 247.191Z" fill="#68E1FD"/>
<path d="M15.5407 247.191H51.4446C51.605 247.211 51.7514 247.293 51.8529 247.42C51.9544 247.547 52.003 247.709 51.9886 247.872V249.878C52.003 250.04 51.9544 250.202 51.8529 250.329C51.7514 250.456 51.605 250.539 51.4446 250.559H15.5407C15.3533 250.537 15.1819 250.442 15.0627 250.294C14.9435 250.146 14.886 249.958 14.9024 249.768V248.004C14.8913 247.908 14.899 247.811 14.9251 247.718C14.9512 247.626 14.9951 247.539 15.0544 247.464C15.1137 247.388 15.1872 247.325 15.2706 247.278C15.3541 247.232 15.4458 247.202 15.5407 247.191Z" fill="url(#paint5_linear_874_115)"/>
<path d="M243.707 204.412C243.693 204.528 243.662 204.642 243.613 204.749C243.517 204.885 243.377 204.984 243.217 205.03C243.058 205.075 242.888 205.064 242.735 204.997C242.433 204.852 242.17 204.636 241.966 204.368C241.985 204.503 241.958 204.642 241.89 204.76C241.822 204.878 241.715 204.97 241.589 205.019C241.33 205.111 241.051 205.126 240.784 205.063C240.171 204.961 239.581 204.748 239.043 204.434C239.025 204.71 238.925 204.974 238.756 205.192C238.587 205.41 238.358 205.572 238.097 205.657C237.836 205.742 237.556 205.747 237.293 205.669C237.03 205.592 236.796 205.437 236.621 205.224L236.251 205.957C235.91 205.781 235.525 205.957 235.134 205.913C234.753 205.84 234.41 205.633 234.167 205.328C233.924 205.024 233.796 204.642 233.806 204.251C233.845 203.472 234.043 202.709 234.386 202.01C234.865 200.785 235.222 199.514 235.453 198.218C235.494 197.797 235.625 197.389 235.837 197.024C236.106 196.689 236.475 196.45 236.889 196.343C238.833 195.765 241.074 197.076 242.3 198.54C243.493 200.244 243.997 202.345 243.707 204.412Z" fill="#32384F"/>
<path d="M438.591 321.066C438.643 322.606 438.358 324.139 437.757 325.555C437.008 326.873 435.88 327.93 434.522 328.586C431.615 330.112 428.238 330.448 425.092 329.523C424.66 329.44 424.272 329.204 423.997 328.857C423.841 328.568 423.773 328.24 423.801 327.912C423.874 326.162 425.042 324.661 426.282 323.431C427.522 322.201 428.915 321.059 429.684 319.492C431.134 316.564 430.054 308.679 435.566 309.938C440.158 310.97 438.714 317.779 438.591 321.066Z" fill="#FDB9A9"/>
<path d="M439.354 326.388C439.354 326.388 440.137 328.328 439.172 329.463C438.208 330.597 428.292 336.784 421.656 331.813C415.019 326.842 430.693 326.168 430.693 326.168L439.354 326.388Z" fill="#68E1FD"/>
<path d="M438.967 321.864C438.662 321.721 438.317 321.689 437.992 321.775C437.667 321.86 437.381 322.057 437.183 322.332C436.533 323.08 435.706 323.649 434.778 323.984C433.85 324.32 432.853 324.411 431.881 324.25C429.705 323.723 428.842 321.197 427.761 321.183C426.68 321.168 420.921 326.125 420.602 328.248C420.283 330.371 423.213 331.909 426.47 332.143C429.727 332.377 437.089 330.071 438.489 328.35C439.889 326.63 439.714 322.954 438.967 321.864Z" fill="white"/>
<path d="M457.485 324.148C457.537 325.688 457.252 327.22 456.651 328.636C455.901 329.953 454.773 331.01 453.416 331.667C450.509 333.19 447.133 333.526 443.987 332.604C443.555 332.521 443.166 332.285 442.892 331.938C442.735 331.65 442.669 331.32 442.703 330.993C442.768 329.244 443.936 327.743 445.177 326.513C446.417 325.283 447.817 324.141 448.578 322.566C450.029 319.638 448.948 311.76 454.461 313.048C459.052 314.037 457.609 320.824 457.485 324.148Z" fill="#FDB9A9"/>
<path d="M458.248 329.426C458.248 329.426 459.032 331.373 458.067 332.508C457.102 333.643 447.187 339.83 440.55 334.851C433.913 329.872 449.588 329.206 449.588 329.206L458.248 329.426Z" fill="#68E1FD"/>
<path d="M457.864 324.879C457.56 324.736 457.215 324.703 456.89 324.787C456.564 324.871 456.278 325.067 456.08 325.34C455.43 326.088 454.602 326.657 453.675 326.992C452.747 327.328 451.75 327.42 450.777 327.259C448.601 326.739 447.738 324.213 446.658 324.198C445.577 324.184 439.818 329.133 439.498 331.264C439.179 333.394 442.11 334.924 445.366 335.159C448.623 335.393 455.985 333.087 457.385 331.359C458.785 329.631 458.611 325.992 457.864 324.879Z" fill="white"/>
<path d="M461.403 241.993C461.403 241.993 462.433 299.101 458.241 318.188L447.622 319.513L440.26 241.283L461.403 241.993Z" fill="#473F47"/>
<path d="M428.552 235.755C428.552 235.755 423.548 266.571 429.619 316.072L440.259 317.397L447.621 239.167L428.552 235.755Z" fill="#473F47"/>
<path d="M416.098 211.176C416.214 213.241 416.874 215.042 418.651 215.643C418.801 215.694 418.953 215.735 419.108 215.767C422.372 216.426 426.659 213.915 429.647 211.726C430.889 210.817 432.081 209.839 433.216 208.797V186.723L417.324 203.145C417.324 203.145 415.873 207.56 416.098 211.176Z" fill="#68E1FD"/>
<path d="M429.532 211.653C429.532 212.685 429.402 213.74 429.402 214.772C429.402 220.475 430.707 226.355 429.025 231.941C428.647 233.193 428.118 234.525 428.553 235.755C429.04 236.785 429.88 237.602 430.918 238.054C435.894 240.8 441.653 241.642 447.267 242.447C451.495 243.04 457.487 244.307 461.396 242.008C463.057 241.034 463.623 239.211 464.152 237.395C465.842 231.612 466.328 225.396 466.785 219.407C466.851 218.616 466.901 217.825 466.945 217.034C467.274 211.577 467.385 206.116 467.279 200.649C467.199 196.688 466.894 192.405 464.327 189.41C460.91 185.428 454.317 182.821 449.312 181.862C447.688 181.525 446.024 181.431 444.373 181.584C442.034 181.962 439.775 182.737 437.692 183.875C435.204 185.113 432.992 186.167 431.766 188.649C430.426 191.514 429.493 194.555 428.996 197.684C428.538 200.62 428.482 203.606 428.829 206.557C428.981 208.022 429.358 209.442 429.489 210.877C429.489 211.133 429.525 211.397 429.532 211.653Z" fill="#68E1FD"/>
<path opacity="0.1" d="M452.576 243.94C454.215 244.431 457.994 242.915 459.249 242.688C459.974 242.557 460.7 242.183 461.425 241.993C465.168 241.056 465.61 230.447 465.98 227.591C466.945 220.043 468.439 212.216 468.526 204.668C468.526 201.739 468.482 198.774 467.532 196.021C466.582 193.268 464.631 190.72 461.925 189.732C457.145 187.989 455.724 203.24 455.071 206.403L451.481 223.652C450.978 225.771 450.65 227.929 450.501 230.103C450.371 233.126 451.328 235.228 452.097 237.959C452.532 239.46 451.372 242.352 451.923 243.45C451.993 243.572 452.088 243.678 452.2 243.762C452.312 243.847 452.44 243.907 452.576 243.94Z" fill="#020202"/>
<path d="M441.095 177.124C441.7 177.78 442.519 178.194 443.402 178.288C444.139 178.366 444.882 178.378 445.621 178.325H446.035C446.139 178.307 446.246 178.325 446.339 178.376C446.382 178.42 446.416 178.473 446.439 178.531C446.461 178.589 446.472 178.651 446.47 178.713C446.633 180.203 446.662 181.705 446.557 183.201C446.557 183.472 446.513 183.735 446.484 184.006C446.431 184.291 446.456 184.584 446.557 184.855C446.77 185.162 447.092 185.374 447.456 185.449C448.104 185.669 448.782 185.785 449.465 185.793C450.927 185.649 452.332 185.146 453.556 184.328C453.453 181.771 453.587 179.21 453.955 176.677C454.427 173.405 455.275 170.132 454.92 166.845C454.847 165.546 454.381 164.302 453.585 163.279C452.418 161.954 450.524 161.522 448.762 161.529C446.427 161.488 444.129 162.124 442.14 163.36C441.414 163.865 441.32 164.502 441.153 165.336C440.899 166.625 440.696 167.936 440.558 169.239C440.399 170.703 440.304 172.226 440.283 173.727C440.246 174.92 440.319 176.253 441.095 177.124Z" fill="#FDB9A9"/>
<path d="M443.647 164.137C445.308 164.415 447.129 164.137 448.724 164.774C450.9 165.674 451.843 168.544 451.118 170.821C451.749 171.048 451.843 169.899 452.358 169.43C452.873 168.961 453.947 169.591 454.026 170.389C453.973 171.197 453.724 171.978 453.301 172.666C452.701 174.08 452.596 175.658 453.004 177.139C453.105 177.484 453.359 177.872 453.729 177.806C454.099 177.74 454.317 177.125 454.527 176.861C454.865 176.453 455.236 176.073 455.637 175.726C456.406 175.046 457.254 174.445 458.045 173.779C459.445 172.6 460.743 170.989 460.663 169.144C460.615 168.395 460.364 167.674 459.938 167.058C459.579 166.521 459.115 166.065 458.574 165.718C458.349 165.579 458.096 165.425 458.045 165.162C458.035 165.015 458.055 164.868 458.103 164.73C458.582 162.863 457.552 160.857 456.028 159.692C454.435 158.612 452.61 157.93 450.704 157.701C449.486 157.474 448.253 157.306 447.02 157.159C445.997 157.101 444.994 156.852 444.06 156.427C444.305 155.751 444.634 155.108 445.04 154.516C444.165 154.778 443.332 155.165 442.566 155.666C442.609 155.236 442.719 154.816 442.893 154.421C441.558 154.882 440.136 155.402 439.266 156.515C438.747 157.234 438.457 158.095 438.434 158.984C438.411 159.873 438.655 160.748 439.135 161.493C440.086 163.009 441.587 163.617 443.233 164.019L443.647 164.137Z" fill="#F9692D"/>
<path d="M445.599 178.326H446.012C446.116 178.308 446.224 178.326 446.317 178.377C446.36 178.421 446.394 178.474 446.416 178.532C446.438 178.59 446.449 178.652 446.447 178.714C446.61 180.204 446.64 181.706 446.534 183.202C446.534 183.202 450.785 182.111 450.64 176.832C449.025 177.506 447.345 178.009 445.628 178.333L445.599 178.326Z" fill="#DE9F93"/>
<path d="M402.847 205.481C404.931 208.465 407.513 211.061 410.477 213.154C412.611 214.62 415.08 215.514 417.651 215.753C417.988 215.783 418.328 215.746 418.652 215.643C419.2 215.475 419.682 215.137 420.03 214.677C421.101 213.382 421.745 211.783 421.872 210.101C422.046 205.708 417.324 203.145 417.324 203.145C417.324 203.145 406.575 199.69 405.298 200.217C404.573 200.524 403.935 202.047 403.47 203.372C403.093 204.515 402.847 205.481 402.847 205.481Z" fill="#68E1FD"/>
<path opacity="0.1" d="M402.847 205.48C404.931 208.464 407.513 211.06 410.477 213.153C412.611 214.619 415.08 215.513 417.651 215.752C417.988 215.782 418.328 215.745 418.652 215.642C418.801 215.693 418.954 215.735 419.109 215.767C422.373 216.426 426.659 213.915 429.648 211.725V211.652L428.632 205.063C426.676 207.102 424.402 208.803 421.901 210.1C420.126 211.064 418.097 211.44 416.098 211.176C415.562 211.096 415.039 210.938 414.546 210.708C410.554 208.766 406.83 206.304 403.47 203.386C403.093 204.514 402.847 205.48 402.847 205.48Z" fill="#020202"/>
<path d="M474.009 212.662C475.46 216.535 476.671 220.643 476.098 224.728C475.373 229.685 472.13 233.829 468.99 237.702C466.516 238.075 463.274 238.024 462.404 235.666C462.181 234.907 462.124 234.107 462.237 233.323L462.585 228.198C462.745 225.914 462.89 223.571 462.237 221.382C461.512 218.885 459.785 216.821 458.429 214.602C456.219 210.986 454.907 206.884 454.606 202.646C454.323 198.678 457.297 185.807 463.107 189.687C465.515 191.276 467.648 197.88 468.91 200.53C470.81 204.489 472.51 208.533 474.009 212.662Z" fill="#68E1FD"/>
<path d="M460.916 241.188C460.777 241.381 460.705 241.616 460.713 241.854C460.713 242.089 460.996 242.308 461.206 242.198C461.794 244.036 460.568 245.962 460.568 247.895C460.56 248.068 460.582 248.241 460.633 248.407C460.721 248.62 460.87 248.801 461.061 248.927C461.384 249.132 461.752 249.252 462.132 249.276C462.512 249.301 462.892 249.228 463.237 249.066C463.924 248.739 464.538 248.276 465.044 247.704C466.145 246.683 466.984 245.407 467.488 243.985C467.671 243.324 467.792 242.648 467.851 241.964L468.438 236.92C464.674 235.682 462.65 238.186 460.916 241.188Z" fill="#FDB9A9"/>
<path d="M403.506 196.021C403.402 195.68 403.212 195.372 402.954 195.127C402.82 195.014 402.648 194.957 402.473 194.969C402.299 194.982 402.136 195.062 402.019 195.193C401.928 195.38 401.867 195.58 401.837 195.786C401.741 196.01 401.581 196.2 401.376 196.331C401.172 196.461 400.933 196.527 400.691 196.518C400.208 196.492 399.733 196.375 399.291 196.174C398.015 195.691 396.712 195.282 395.389 194.952C395.082 194.857 394.753 194.857 394.446 194.952C394.285 195.037 394.144 195.154 394.029 195.297C393.914 195.439 393.829 195.603 393.779 195.779C393.506 196.591 393.437 197.46 393.579 198.306C393.72 199.152 394.068 199.949 394.591 200.626C395.664 201.967 397.125 202.937 398.769 203.401C400.404 203.85 402.087 204.095 403.781 204.133C404.21 204.203 404.649 204.141 405.043 203.957C407.125 202.742 404.035 197.382 403.506 196.021Z" fill="#FDB9A9"/>
<path d="M322.509 127.821H329.574V168.492H322.509V127.821Z" fill="#68E1FD"/>
<path d="M332.408 144.522H339.473V168.493H332.408V144.522Z" fill="#68E1FD"/>
<path d="M342.302 152.004H349.366V168.5H342.302V152.004Z" fill="#68E1FD"/>
<path d="M352.195 139.332H359.26V168.493H352.195V139.332Z" fill="#68E1FD"/>
<path d="M362.09 132.089H369.155V168.492H362.09V132.089Z" fill="#68E1FD"/>
<path d="M371.983 127.821H379.048V168.492H371.983V127.821Z" fill="#68E1FD"/>
<defs>
<linearGradient id="paint0_linear_874_115" x1="188.642" y1="191.758" x2="163.499" y2="480.696" gradientUnits="userSpaceOnUse">
<stop offset="0.01"/>
<stop offset="0.08" stop-opacity="0.69"/>
<stop offset="0.21" stop-opacity="0.32"/>
<stop offset="1" stop-opacity="0"/>
</linearGradient>
<linearGradient id="paint1_linear_874_115" x1="448.211" y1="226.062" x2="431.168" y2="421.944" gradientUnits="userSpaceOnUse">
<stop offset="0.01"/>
<stop offset="0.08" stop-opacity="0.69"/>
<stop offset="0.21" stop-opacity="0.32"/>
<stop offset="1" stop-opacity="0"/>
</linearGradient>
<linearGradient id="paint2_linear_874_115" x1="60.9151" y1="272.013" x2="218.308" y2="266.985" gradientUnits="userSpaceOnUse">
<stop offset="0.01"/>
<stop offset="0.08" stop-opacity="0.69"/>
<stop offset="0.21" stop-opacity="0.32"/>
<stop offset="1" stop-opacity="0"/>
</linearGradient>
<linearGradient id="paint3_linear_874_115" x1="179.498" y1="391.552" x2="169.765" y2="-134.437" gradientUnits="userSpaceOnUse">
<stop offset="0.01"/>
<stop offset="0.08" stop-opacity="0.69"/>
<stop offset="0.21" stop-opacity="0.32"/>
<stop offset="1" stop-opacity="0"/>
</linearGradient>
<linearGradient id="paint4_linear_874_115" x1="181.914" y1="150.108" x2="161.238" y2="705.501" gradientUnits="userSpaceOnUse">
<stop offset="0.01"/>
<stop offset="0.08" stop-opacity="0.69"/>
<stop offset="0.21" stop-opacity="0.32"/>
<stop offset="1" stop-opacity="0"/>
</linearGradient>
<linearGradient id="paint5_linear_874_115" x1="50.2258" y1="212.327" x2="30.5131" y2="259.906" gradientUnits="userSpaceOnUse">
<stop offset="0.01"/>
<stop offset="0.08" stop-opacity="0.69"/>
<stop offset="0.21" stop-opacity="0.32"/>
<stop offset="1" stop-opacity="0"/>
</linearGradient>
</defs>
</svg>
