<svg width="236" height="80" viewBox="0 0 236 80" fill="none" xmlns="http://www.w3.org/2000/svg">
<path d="M33.1212 79.5641L0.910156 61.5503L0.910156 25.5271L33.13 43.5387L33.1212 79.5641ZM3.12809 60.3112L30.9121 75.8424L30.9121 44.78L3.12809 29.2467L3.12809 60.3112Z" fill="#55B8FF"/>
<path d="M40.9033 79.5641V43.5387L73.1232 25.5271V61.5503L40.9033 79.5641ZM43.1213 44.7736V75.8424L70.9053 60.3112V29.2467L43.1213 44.7736Z" fill="#55B8FF"/>
<path d="M37.0109 37.012L4.79102 19.0004L37.0109 0.98877L69.2219 19.0004L37.0109 37.012ZM9.22688 19.0004L37.0109 34.5337L64.786 19.0004L37.0109 3.46921L9.22688 19.0004Z" fill="#55B8FF"/>
<path d="M37.0113 76.1538L5.90039 58.7586L5.90039 23.968L37.0113 6.57275L68.1133 23.968V58.7586L37.0113 76.1538ZM8.11832 57.5151L37.0113 73.667L65.8954 57.5151V25.2115L37.0113 9.05963L8.11832 25.2115L8.11832 57.5151Z" fill="#55B8FF"/>
<path d="M38.1205 74.9079H35.9025V41.9837L6.45508 25.5204L7.56404 23.6606L38.1205 40.7445V74.9079Z" fill="#55B8FF"/>
<path d="M66.4606 23.6626L36.458 40.4351L37.567 42.2949L67.5696 25.5224L66.4606 23.6626Z" fill="#55B8FF"/>
<path d="M88.622 40.0869C87.1664 40.0869 86.0498 39.8385 85.2723 39.3416C84.4764 38.8205 83.9153 38.0789 83.6843 37.2429C83.3849 36.2094 83.2431 35.1468 83.2625 34.0819V22.6467H85.9423V34.1884C85.9369 34.8656 85.995 35.5421 86.1159 36.2113C86.193 36.7485 86.4573 37.2532 86.8741 37.6594C87.2619 38.0143 87.8446 38.1917 88.622 38.1917C89.3995 38.1917 89.9886 38.0143 90.3892 37.6594C90.7984 37.2503 91.0573 36.7465 91.1336 36.2113C91.2546 35.5421 91.3127 34.8656 91.3073 34.1884V22.6467L93.9623 22.6467V34.0819C93.9817 35.1468 93.8399 36.2094 93.5404 37.2429C93.3087 38.0756 92.7511 38.8147 91.9607 39.3369C91.1906 39.8338 90.0777 40.0822 88.622 40.0822" fill="#6B6B6B"/>
<path d="M96.9092 39.8953V22.6467H98.8198L104.527 34.1032V22.6467L106.859 22.6467V39.8953L105.073 39.8953L99.2912 28.1194V39.8953H96.9092Z" fill="#6B6B6B"/>
<path d="M112.913 22.6467H110.159V39.8953H112.913V22.6467Z" fill="#6B6B6B"/>
<path d="M118.372 39.8953V24.4355L114.973 24.4355V22.6467L124.476 22.6467V24.4355L121.176 24.4355V39.8953H118.372Z" fill="#6B6B6B"/>
<path d="M126.412 39.8953V22.6467L134.203 22.6467V24.4355L129.216 24.4355V30.1424L133.26 30.1424V31.846L129.216 31.846V38.1704L134.253 38.1704V39.8953H126.412Z" fill="#6B6B6B"/>
<path d="M136.511 39.8953V22.6467L140.878 22.6467C142.367 22.6467 143.546 22.8415 144.415 23.2311C145.263 23.604 145.925 24.2288 146.276 24.9891C146.676 25.9222 146.863 26.9127 146.827 27.9065V34.2523C146.862 35.3016 146.675 36.3477 146.276 37.34C145.944 38.1343 145.305 38.8068 144.465 39.2446C143.63 39.68 142.509 39.8969 141.101 39.8953H136.511ZM139.315 38.1705H140.903C141.928 38.1705 142.656 38.0001 143.086 37.6594C143.549 37.2602 143.827 36.7306 143.869 36.1688C143.966 35.3829 144.011 34.5929 144.004 33.8027V28.2164C144.02 27.4886 143.954 26.7611 143.806 26.0444C143.763 25.8023 143.665 25.5701 143.516 25.3615C143.366 25.153 143.17 24.9724 142.937 24.8306C142.491 24.564 141.792 24.4307 140.842 24.4307L139.328 24.4307L139.315 38.1705Z" fill="#6B6B6B"/>
<path d="M158.171 22.6467H155.417V39.8953H158.171V22.6467Z" fill="#6B6B6B"/>
<path d="M163.631 39.8953V24.4355L160.231 24.4355V22.6467L169.735 22.6467V24.4355L166.435 24.4355V39.8953H163.631Z" fill="#6B6B6B"/>
<path d="M182.39 40.0867C180.967 40.0867 179.864 39.8311 179.081 39.3201C178.29 38.8015 177.715 38.0768 177.444 37.2545C177.125 36.317 176.969 35.3444 176.98 34.3679V28.2682C176.959 27.2394 177.113 26.2135 177.438 25.2231C177.7 24.4113 178.278 23.7008 179.076 23.2096C179.861 22.7364 180.963 22.4998 182.384 22.4998C183.641 22.4998 184.638 22.6985 185.373 23.096C186.11 23.4947 186.669 24.0948 186.961 24.7996C187.306 25.6549 187.47 26.5564 187.446 27.4614V28.8242H184.791V27.6104C184.796 27.0442 184.758 26.4784 184.678 25.9163C184.637 25.4878 184.422 25.0851 184.071 24.7783C183.741 24.5085 183.189 24.3737 182.417 24.3737C181.645 24.3737 181.066 24.5188 180.68 24.809C180.291 25.142 180.042 25.5764 179.972 26.0441C179.857 26.6606 179.804 27.2843 179.812 27.9086V34.7441C179.789 35.4351 179.872 36.1256 180.06 36.7978C180.172 37.2319 180.466 37.6153 180.887 37.8744C181.353 38.1063 181.887 38.2173 182.425 38.1938C183.186 38.1938 183.732 38.0479 184.063 37.7561C184.416 37.4237 184.634 37.0019 184.683 36.5541C184.772 35.961 184.814 35.3634 184.808 34.7654V33.4877H187.462V34.7654C187.481 35.7055 187.33 36.6424 187.016 37.5432C186.759 38.2966 186.218 38.9557 185.477 39.4171C184.742 39.865 183.717 40.089 182.401 40.089" fill="#6B6B6B"/>
<path d="M190.131 39.8953V22.6467L192.935 22.6467V38.1704L198.071 38.1704V39.8953H190.131Z" fill="#6B6B6B"/>
<path d="M205.167 40.0869C203.712 40.0869 202.592 39.8385 201.818 39.3416C201.02 38.8218 200.458 38.0797 200.229 37.2429C199.929 36.2096 199.787 35.1469 199.808 34.0819V22.6467H202.485V34.1884C202.479 34.8657 202.538 35.5423 202.661 36.2113C202.736 36.7486 203 37.2536 203.417 37.6594C203.805 38.0143 204.387 38.1917 205.167 38.1917C205.947 38.1917 206.546 38.0143 206.929 37.6594C207.337 37.2497 207.596 36.7462 207.673 36.2113C207.793 35.542 207.851 34.8655 207.847 34.1884V22.6467L210.502 22.6467V34.0819C210.521 35.1469 210.378 36.2095 210.077 37.2429C209.848 38.0766 209.293 38.8175 208.503 39.3416C207.733 39.8385 206.621 40.0869 205.167 40.0869Z" fill="#6B6B6B"/>
<path d="M213.454 39.8952V22.6466L218.069 22.6466C218.869 22.6345 219.666 22.7206 220.437 22.9022C221.06 23.0498 221.634 23.3195 222.114 23.6901C222.572 24.0614 222.913 24.5261 223.106 25.0411C223.333 25.6649 223.442 26.316 223.429 26.9694C223.444 27.5935 223.338 28.2155 223.117 28.8102C222.944 29.2869 222.617 29.7118 222.174 30.0358C221.705 30.3515 221.143 30.5504 220.551 30.6108C221.272 30.7308 221.946 31.005 222.511 31.4081C223.018 31.8012 223.397 32.3 223.613 32.8562C223.872 33.5436 223.994 34.2635 223.975 34.9856C223.983 35.6684 223.883 36.349 223.677 37.0086C223.502 37.5789 223.184 38.1095 222.745 38.5631C222.307 38.9985 221.754 39.3376 221.132 39.5521C220.394 39.8002 219.606 39.92 218.814 39.9047L213.454 39.8952ZM216.258 29.8442L217.912 29.8442C218.55 29.8698 219.186 29.7711 219.773 29.5555C220.217 29.3656 220.556 29.0332 220.716 28.6304C220.917 28.0959 221.011 27.5357 220.992 26.9742C220.992 26.1855 220.851 25.6105 220.57 25.2493C220.416 25.0662 220.219 24.9122 219.993 24.7967C219.767 24.6811 219.516 24.6065 219.255 24.5773C218.487 24.473 217.711 24.4239 216.933 24.4306L216.263 24.4306L216.258 29.8442ZM216.258 38.1703H218.144C219.399 38.1703 220.238 37.918 220.661 37.4132C221.084 36.9084 221.295 36.0961 221.295 34.9762C221.315 34.3563 221.201 33.7386 220.959 33.1543C220.76 32.6916 220.384 32.3009 219.892 32.047C219.284 31.776 218.604 31.6478 217.92 31.6755L216.266 31.6755L216.258 38.1703Z" fill="#6B6B6B"/>
<path d="M231.193 40.0868C230.178 40.1187 229.174 39.8968 228.304 39.448C227.531 39.0192 226.922 38.4044 226.553 37.6805C226.136 36.8516 225.9 35.9636 225.858 35.0613L228.34 34.4863C228.387 35.0832 228.5 35.675 228.676 36.2538C228.819 36.7728 229.113 37.2522 229.531 37.6474C229.746 37.8327 230.005 37.977 230.29 38.0708C230.575 38.1645 230.88 38.2057 231.185 38.1916C231.913 38.1916 232.464 38.0189 232.839 37.6687C233.214 37.3185 233.39 36.8216 233.39 36.1686C233.431 35.4964 233.213 34.8315 232.77 34.2758C232.306 33.7537 231.782 33.2726 231.207 32.8396L227.832 30.2842C227.215 29.8364 226.716 29.2806 226.368 28.654C226.031 27.9642 225.87 27.2203 225.897 26.4725C225.897 25.2106 226.319 24.2311 227.162 23.5339C228.006 22.8367 229.156 22.4889 230.611 22.4904C231.323 22.4793 232.032 22.5688 232.709 22.7554C233.285 22.9179 233.805 23.2 234.223 23.5765C234.653 23.9798 234.982 24.4539 235.191 24.9701C235.449 25.6067 235.611 26.2691 235.673 26.941L233.302 27.5065C233.26 26.9775 233.16 26.4531 233.004 25.9401C232.88 25.4999 232.609 25.1002 232.224 24.7902C231.773 24.4769 231.201 24.3214 230.622 24.3549C230.03 24.3224 229.446 24.4925 228.999 24.8281C228.609 25.1436 228.414 25.6168 228.414 26.2477C228.395 26.6959 228.502 27.1414 228.726 27.5467C228.985 27.9432 229.325 28.2966 229.729 28.5901L233.128 31.1455C233.909 31.7373 234.583 32.4246 235.13 33.185C235.726 34.0281 236.028 35.0005 235.998 35.9864C236.022 36.7549 235.808 37.515 235.378 38.1892C234.983 38.7931 234.394 39.2861 233.68 39.6089C232.912 39.9439 232.06 40.1121 231.199 40.0986" fill="#6B6B6B"/>
<path d="M103.161 54.2031V46.5808H105.229C105.648 46.5622 106.065 46.6497 106.433 46.8334C106.732 47.0016 106.963 47.2544 107.09 47.5534C107.236 47.9153 107.306 48.2989 107.297 48.6843C107.307 49.0454 107.226 49.4038 107.061 49.7323C106.917 50.0197 106.677 50.2584 106.375 50.4146C106.026 50.5862 105.633 50.6695 105.237 50.6558H104.319V54.2031H103.161ZM104.332 49.8868H104.869C105.139 49.8959 105.407 49.8614 105.663 49.785C105.758 49.7525 105.843 49.7021 105.915 49.6371C105.986 49.5721 106.041 49.494 106.077 49.4081C106.171 49.1742 106.213 48.9256 106.201 48.6768C106.211 48.3944 106.181 48.112 106.114 47.8361C106.091 47.7475 106.046 47.6649 105.982 47.595C105.918 47.525 105.838 47.4694 105.746 47.4328C105.467 47.3439 105.172 47.3054 104.878 47.3197H104.332V49.8868Z" fill="#6B6B6B"/>
<path d="M107.889 54.2031V46.5799H109.743C110.262 46.567 110.779 46.6361 111.266 46.7835C111.655 46.9021 111.978 47.1339 112.176 47.4357C112.386 47.8012 112.485 48.2036 112.467 48.6082C112.468 48.88 112.43 49.1509 112.353 49.415C112.286 49.6379 112.162 49.8462 111.989 50.0258C111.817 50.201 111.589 50.3318 111.33 50.4028L112.617 54.2031H111.38L110.175 50.6215H109.175V54.2031H107.889ZM109.175 49.8599H109.662C109.963 49.8683 110.264 49.8299 110.548 49.7468C110.767 49.6791 110.946 49.5441 111.048 49.3698C111.166 49.1308 111.22 48.8737 111.207 48.6157C111.243 48.2756 111.139 47.9353 110.912 47.6506C110.754 47.5343 110.568 47.4475 110.367 47.3961C110.165 47.3447 109.953 47.3299 109.743 47.3528H109.175V49.8599Z" fill="#6B6B6B"/>
<path d="M115.575 54.2004C115.087 54.2213 114.602 54.1188 114.181 53.9054C113.828 53.7052 113.565 53.4074 113.434 53.0609C113.275 52.646 113.199 52.2108 113.208 51.7738V48.9415C113.197 48.5102 113.275 48.0805 113.438 47.6729C113.574 47.3375 113.837 47.0516 114.185 46.8616C114.609 46.6569 115.09 46.5598 115.575 46.5813C116.059 46.5606 116.54 46.6591 116.961 46.8653C117.304 47.0585 117.565 47.3434 117.703 47.6766C117.867 48.0829 117.945 48.5114 117.934 48.9415V51.7812C117.944 52.2137 117.866 52.6444 117.703 53.0535C117.567 53.3965 117.307 53.6925 116.961 53.898C116.544 54.1147 116.061 54.2188 115.575 54.1967V54.2004ZM115.575 53.3744C115.832 53.3909 116.088 53.3311 116.3 53.2047C116.469 53.0811 116.586 52.9125 116.633 52.7253C116.694 52.4831 116.723 52.2356 116.718 51.9877V48.7129C116.722 48.4736 116.693 48.2347 116.633 48.0011C116.586 47.8191 116.469 47.6564 116.3 47.5401C116.085 47.4197 115.831 47.3628 115.575 47.3779C115.318 47.3636 115.063 47.4204 114.846 47.5401C114.673 47.6541 114.554 47.8176 114.509 48.0011C114.448 48.2347 114.42 48.4736 114.424 48.7129V51.9877C114.419 52.2356 114.448 52.4831 114.509 52.7253C114.553 52.9141 114.673 53.0836 114.846 53.2047C115.06 53.3305 115.317 53.3903 115.575 53.3744Z" fill="#6B6B6B"/>
<path d="M121.366 54.2013C120.905 54.2183 120.448 54.1139 120.06 53.9027C119.714 53.6866 119.462 53.3812 119.341 53.0328C119.182 52.5872 119.107 52.1232 119.119 51.6579V49.1624C119.107 48.691 119.174 48.2206 119.319 47.7654C119.431 47.4101 119.685 47.0986 120.038 46.8844C120.471 46.6619 120.974 46.5565 121.48 46.5821C121.94 46.5643 122.399 46.6454 122.813 46.8181C123.153 46.9741 123.415 47.2296 123.549 47.5369C123.715 47.9277 123.794 48.3416 123.78 48.7569V49.0334H122.625V48.8012C122.631 48.5342 122.605 48.2674 122.547 48.005C122.515 47.8243 122.405 47.6601 122.238 47.5442C122.017 47.4295 121.759 47.3766 121.501 47.3931C121.36 47.3822 121.218 47.3952 121.082 47.4312C120.947 47.4673 120.821 47.5257 120.713 47.6032C120.539 47.7627 120.432 47.966 120.408 48.1819C120.366 48.4544 120.345 48.7291 120.347 49.0039V51.7685C120.341 52.0689 120.372 52.3691 120.438 52.6642C120.48 52.8723 120.606 53.0615 120.796 53.1987C121.012 53.3263 121.273 53.3874 121.536 53.3719C121.802 53.3866 122.066 53.3185 122.277 53.1803C122.465 53.0272 122.591 52.8269 122.634 52.6089C122.707 52.2995 122.74 51.9844 122.734 51.6689V51.1492H121.61V50.412H123.845V54.0981H123.052L122.935 53.2429C122.827 53.5067 122.639 53.7418 122.39 53.9248C122.097 54.1142 121.734 54.2084 121.366 54.1902" fill="#6B6B6B"/>
<path d="M125.026 54.2031V46.58H126.645C127.099 46.5665 127.552 46.6357 127.978 46.7836C128.319 46.901 128.602 47.1332 128.773 47.4358C128.959 47.8007 129.047 48.2036 129.028 48.6083C129.031 48.8802 128.998 49.1513 128.929 49.4151C128.872 49.6385 128.763 49.8472 128.61 50.0259C128.46 50.2011 128.26 50.3319 128.034 50.4029L129.163 54.2031H128.077L127.023 50.6215H126.148V54.2031H125.026ZM126.148 49.86H126.586C126.856 49.8707 127.126 49.8323 127.381 49.7469C127.573 49.6792 127.729 49.5441 127.819 49.3699C127.922 49.1309 127.969 48.8738 127.958 48.6159C127.99 48.2757 127.898 47.9354 127.699 47.6507C127.561 47.5347 127.397 47.4482 127.22 47.3968C127.043 47.3454 126.857 47.3305 126.673 47.3529H126.148V49.86Z" fill="#6B6B6B"/>
<path d="M129.755 54.2031L131.554 46.5784H132.684L134.483 54.2031H133.366L132.977 52.2828H131.253L130.834 54.2031H129.755ZM131.428 51.5222H132.843L132.131 48.0845L131.428 51.5222Z" fill="#6B6B6B"/>
<path d="M135.665 54.2031L135.815 46.5784H136.911L138.322 52.7647L139.75 46.5784H140.838L140.984 54.2031H140.086L139.995 48.6681L138.639 54.2031H138.01L136.662 48.6681L136.575 54.2031H135.665Z" fill="#6B6B6B"/>
<path d="M142.165 54.2031L142.332 46.5784H143.549L145.118 52.7647L146.704 46.5784L147.908 46.5784L148.075 54.2031H147.077L146.976 48.6681L145.469 54.2031H144.771L143.272 48.6681L143.176 54.2031H142.165Z" fill="#6B6B6B"/>
<path d="M150.44 46.5784H149.258V54.2031H150.44V46.5784Z" fill="#6B6B6B"/>
<path d="M152.212 54.2031V46.5784H153.005L155.379 51.6427V46.5784H156.349V54.2031H155.606L153.203 48.9995V54.2031H152.212Z" fill="#6B6B6B"/>
<path d="M159.508 54.2013C159.103 54.2184 158.703 54.1141 158.362 53.9027C158.059 53.6866 157.838 53.3812 157.731 53.0328C157.59 52.5874 157.523 52.1234 157.532 51.6579V49.1624C157.523 48.6908 157.583 48.2204 157.712 47.7654C157.81 47.4101 158.033 47.0986 158.343 46.8844C158.723 46.6619 159.164 46.5565 159.608 46.5821C160.012 46.5643 160.415 46.6454 160.778 46.8181C161.076 46.9741 161.306 47.2296 161.423 47.5368C161.568 47.928 161.636 48.3418 161.622 48.7569V49.0334H160.609V48.8012C160.616 48.5343 160.594 48.2676 160.544 48.005C160.516 47.8243 160.419 47.6601 160.273 47.5442C160.079 47.4295 159.853 47.3766 159.627 47.3931C159.503 47.3822 159.378 47.3951 159.259 47.4312C159.14 47.4673 159.03 47.5257 158.935 47.6032C158.783 47.7627 158.689 47.966 158.667 48.1819C158.63 48.4544 158.613 48.729 158.614 49.0039V51.7684C158.609 52.0689 158.635 52.3691 158.694 52.6642C158.729 52.8718 158.839 53.0611 159.004 53.1986C159.194 53.3257 159.423 53.3868 159.654 53.3719C159.887 53.3873 160.119 53.319 160.304 53.1802C160.471 53.0285 160.583 52.8278 160.621 52.6089C160.683 52.2993 160.711 51.9842 160.705 51.6689V51.1492H159.711V50.412H161.668V54.098H160.992L160.885 53.2429C160.793 53.508 160.628 53.7439 160.407 53.9248C160.15 54.1148 159.831 54.209 159.508 54.1902" fill="#6B6B6B"/>
<path d="M167.489 54.2025C167.171 54.2108 166.858 54.1355 166.582 53.9846C166.333 53.8451 166.133 53.6384 166.005 53.3902C165.867 53.1206 165.799 52.8231 165.805 52.5227C165.794 52.0896 165.91 51.6623 166.14 51.2896C166.358 50.9448 166.627 50.6326 166.939 50.3629C166.824 50.1414 166.701 49.9199 166.555 49.6947C166.424 49.4699 166.312 49.2353 166.22 48.9933C166.125 48.749 166.077 48.49 166.078 48.2291C166.072 47.9282 166.141 47.6304 166.282 47.3615C166.413 47.1209 166.613 46.9211 166.858 46.7856C167.129 46.6434 167.434 46.5721 167.742 46.5788C168.032 46.5745 168.319 46.6313 168.584 46.7449C168.822 46.8489 169.025 47.0137 169.172 47.2212C169.324 47.4392 169.402 47.6972 169.395 47.9596C169.394 48.2854 169.313 48.6064 169.161 48.8973C169.004 49.1944 168.811 49.4732 168.588 49.7279C168.383 49.9639 168.164 50.1894 167.935 50.4035L169.107 52.1756C169.181 52.0368 169.241 51.8908 169.284 51.74C169.333 51.5776 169.372 51.4003 169.41 51.2157C169.449 51.0312 169.472 50.8466 169.491 50.6804H170.525C170.52 50.9301 170.483 51.1782 170.413 51.4188C170.342 51.6725 170.246 51.9196 170.129 52.1572C170.028 52.3679 169.91 52.5704 169.775 52.7626C169.868 52.8677 169.978 52.9564 170.102 53.0248C170.232 53.1005 170.381 53.1401 170.533 53.1392V54.1545H170.398C170.224 54.1514 170.053 54.1097 169.898 54.0326C169.757 53.9552 169.628 53.8596 169.514 53.7484L169.172 53.4345C168.987 53.653 168.757 53.8316 168.496 53.9588C168.186 54.1025 167.844 54.1734 167.5 54.1655L167.489 54.2025ZM167.5 53.3422C167.719 53.3498 167.934 53.2903 168.115 53.1724C168.275 53.0685 168.42 52.9444 168.546 52.8032L167.354 51.0422C167.189 51.2434 167.059 51.4691 166.97 51.7105C166.878 51.9645 166.831 52.2316 166.832 52.5005C166.831 52.639 166.851 52.7769 166.889 52.9103C166.922 53.0347 166.992 53.1475 167.089 53.2352C167.198 53.3185 167.334 53.3617 167.473 53.357L167.5 53.3422ZM167.577 49.8498C167.725 49.6822 167.853 49.5003 167.961 49.3071C168.081 49.0941 168.179 48.8703 168.254 48.6389C168.329 48.4132 168.368 48.178 168.369 47.9411C168.373 47.8631 168.36 47.7853 168.33 47.7127C168.3 47.6401 168.254 47.5744 168.196 47.5202C168.071 47.4169 167.911 47.3628 167.746 47.3689C167.647 47.3612 167.547 47.3816 167.46 47.4275C167.373 47.4734 167.301 47.5429 167.254 47.6273C167.157 47.8061 167.109 48.0053 167.112 48.2069C167.113 48.4948 167.163 48.7805 167.262 49.0523C167.358 49.3329 167.466 49.5987 167.581 49.8498" fill="#6B6B6B"/>
<path d="M174.67 54.189V46.5814H176.419C176.908 46.5603 177.394 46.6493 177.839 46.841C178.177 47.0068 178.44 47.2818 178.582 47.6161C178.744 48.0285 178.82 48.4668 178.805 48.9066V51.7095C178.819 52.1726 178.744 52.6342 178.582 53.0715C178.451 53.4233 178.196 53.7211 177.859 53.9143C177.445 54.1227 176.979 54.2215 176.511 54.2003L174.67 54.189ZM175.795 53.4365H176.431C176.742 53.4644 177.053 53.3841 177.306 53.2107C177.49 53.0335 177.601 52.8001 177.62 52.5523C177.658 52.2049 177.676 51.8557 177.672 51.5064V49.0345C177.68 48.713 177.653 48.3915 177.592 48.0751C177.576 47.9679 177.537 47.865 177.477 47.7726C177.418 47.6801 177.339 47.6 177.246 47.5371C176.987 47.4063 176.693 47.3476 176.399 47.3677H175.795V53.4365Z" fill="#6B6B6B"/>
<path d="M179.988 54.2031V46.5784H183.512V47.3691H181.254V49.8918H183.085V50.6449H181.254V53.4425H183.534V54.2031H179.988Z" fill="#6B6B6B"/>
<path d="M186.3 54.1879C185.886 54.2019 185.475 54.1059 185.12 53.9116C184.805 53.7253 184.558 53.4588 184.408 53.1454C184.238 52.7874 184.142 52.4041 184.125 52.0144L185.136 51.7639C185.154 52.0228 185.2 52.2794 185.273 52.5302C185.331 52.7553 185.45 52.9632 185.621 53.1343C185.71 53.2141 185.817 53.276 185.934 53.316C186.051 53.356 186.175 53.3731 186.3 53.3664C186.423 53.3744 186.547 53.3586 186.662 53.3198C186.778 53.2811 186.883 53.2203 186.971 53.1417C187.134 52.9593 187.215 52.7277 187.198 52.4933C187.213 52.2044 187.125 51.9186 186.947 51.6792C186.757 51.4528 186.543 51.2442 186.308 51.0567L184.934 49.9515C184.683 49.7584 184.48 49.5185 184.339 49.2479C184.201 48.9487 184.135 48.6258 184.145 48.3012C184.13 48.0682 184.168 47.8349 184.257 47.6162C184.346 47.3974 184.485 47.1978 184.663 47.0303C185.047 46.7177 185.551 46.5562 186.066 46.5808C186.355 46.5753 186.643 46.6139 186.919 46.695C187.155 46.7697 187.367 46.8962 187.537 47.0634C187.716 47.2375 187.854 47.4431 187.942 47.6676C188.049 47.9418 188.116 48.228 188.14 48.5185L187.169 48.758C187.152 48.5303 187.112 48.3046 187.048 48.0838C186.998 47.8929 186.887 47.7198 186.729 47.5865C186.537 47.4591 186.305 47.3921 186.068 47.3954C185.831 47.3987 185.602 47.4723 185.415 47.6049C185.331 47.6866 185.268 47.7831 185.227 47.8883C185.187 47.9936 185.171 48.1053 185.18 48.2164C185.172 48.4096 185.215 48.6017 185.306 48.7764C185.411 48.9473 185.548 49.1005 185.71 49.2295L187.097 50.3346C187.412 50.5907 187.684 50.8873 187.905 51.2151C188.149 51.5782 188.273 51.9978 188.261 52.4233C188.271 52.7564 188.183 53.0858 188.006 53.3774C187.847 53.6386 187.606 53.8513 187.315 53.9889C187.002 54.1363 186.653 54.2098 186.3 54.2026" fill="#6B6B6B"/>
<path d="M190.626 46.5784H189.444V54.2031H190.626V46.5784Z" fill="#6B6B6B"/>
<path d="M194.058 54.2014C193.596 54.2179 193.14 54.1136 192.751 53.9028C192.408 53.6854 192.158 53.3803 192.036 53.0328C191.874 52.5879 191.797 52.1236 191.81 51.6579V49.1623C191.799 48.6908 191.868 48.2203 192.015 47.7653C192.123 47.4096 192.376 47.0976 192.729 46.8842C193.164 46.6624 193.668 46.557 194.175 46.582C194.636 46.5644 195.095 46.6456 195.508 46.8179C195.848 46.975 196.109 47.2301 196.245 47.5367C196.41 47.9278 196.487 48.3417 196.471 48.7569V49.0333H195.317V48.8011C195.322 48.5343 195.297 48.2677 195.243 48.0049C195.208 47.8242 195.096 47.6604 194.929 47.5441C194.71 47.4291 194.454 47.3762 194.197 47.3929C194.055 47.382 193.912 47.3949 193.776 47.4309C193.64 47.467 193.514 47.5255 193.404 47.6031C193.234 47.7639 193.128 47.9667 193.104 48.1818C193.059 48.4541 193.039 48.7289 193.043 49.0038V51.7685C193.037 52.0689 193.067 52.3691 193.134 52.6642C193.174 52.8719 193.299 53.0612 193.487 53.1987C193.704 53.3258 193.965 53.3869 194.228 53.372C194.494 53.3874 194.758 53.3191 194.968 53.1803C195.158 53.0276 195.285 52.8273 195.33 52.6089C195.401 52.2994 195.433 51.9843 195.426 51.6689V51.1492H194.306V50.412H196.536V54.0982H195.748L195.626 53.243C195.522 53.5081 195.333 53.744 195.081 53.9249C194.789 54.1149 194.426 54.2092 194.058 54.1903" fill="#6B6B6B"/>
<path d="M197.718 54.2031V46.5784H198.514L200.885 51.6427V46.5784H201.855V54.2031H201.112L198.708 48.9995V54.2031H197.718Z" fill="#6B6B6B"/>
<path d="M204.219 46.5784H203.037V54.2031H204.219V46.5784Z" fill="#6B6B6B"/>
<path d="M205.4 54.2031V46.5784H206.31L209.021 51.6427V46.5784H210.128V54.2031H209.28L206.532 48.9995V54.2031H205.4Z" fill="#6B6B6B"/>
<path d="M213.279 54.2013C212.875 54.2183 212.475 54.1139 212.135 53.9027C211.833 53.6866 211.612 53.3812 211.506 53.0328C211.367 52.5872 211.301 52.1232 211.312 51.6579V49.1624C211.301 48.691 211.36 48.2206 211.487 47.7654C211.585 47.4101 211.807 47.0986 212.116 46.8844C212.495 46.6619 212.935 46.5565 213.378 46.5821C213.781 46.5643 214.182 46.6454 214.544 46.8181C214.842 46.9741 215.071 47.2296 215.188 47.5369C215.334 47.9277 215.403 48.3416 215.39 48.7569V49.0334H214.38V48.8012C214.385 48.5342 214.362 48.2674 214.312 48.005C214.284 47.8243 214.187 47.6601 214.041 47.5442C213.848 47.4295 213.623 47.3766 213.397 47.3931C213.273 47.3822 213.148 47.3952 213.03 47.4312C212.912 47.4673 212.802 47.5257 212.707 47.6032C212.555 47.7627 212.461 47.966 212.44 48.1819C212.403 48.4544 212.385 48.7291 212.387 49.0039V51.7685C212.381 52.0689 212.408 52.3691 212.467 52.6642C212.504 52.8718 212.615 53.0605 212.779 53.1987C212.968 53.3263 213.197 53.3874 213.427 53.3719C213.66 53.3866 213.891 53.3185 214.075 53.1803C214.24 53.0272 214.35 52.8269 214.388 52.6089C214.451 52.2995 214.481 51.9844 214.475 51.6689V51.1492H213.492V50.412H215.447V54.0981H214.769L214.666 53.2429C214.572 53.5067 214.407 53.7418 214.19 53.9248C213.934 54.1142 213.616 54.2084 213.294 54.1902" fill="#6B6B6B"/>
</svg>
