<svg width="284" height="103" viewBox="0 0 284 103" fill="none" xmlns="http://www.w3.org/2000/svg">
<path d="M40.9375 102.45L0 78.9631L0 31.9941L40.9488 55.4786L40.9375 102.45ZM2.81881 77.3474L38.13 97.5977L38.13 57.0971L2.81881 36.8439L2.81881 77.3474Z" fill="#FFFFFF"/>
<path d="M50.8281 102.45L50.8281 55.4786L91.7769 31.9941V78.9631L50.8281 102.45ZM53.6469 57.0887V97.5977L88.9581 77.3474V36.8439L53.6469 57.0887Z" fill="#FFFFFF"/>
<path d="M45.8814 46.9689L4.93262 23.4845L45.8814 0L86.8189 23.4845L45.8814 46.9689ZM10.5702 23.4845L45.8814 43.7376L81.1813 23.4845L45.8814 3.23412L10.5702 23.4845Z" fill="#FFFFFF"/>
<path d="M45.8812 98.0046L6.3418 75.3237L6.3418 29.9621L45.8812 7.28125L85.4093 29.9621V75.3237L45.8812 98.0046ZM9.1606 73.7025L45.8812 94.762L82.5905 73.7025V31.5833L45.8812 10.5238L9.1606 31.5833L9.1606 73.7025Z" fill="#FFFFFF"/>
<path d="M47.291 96.3794H44.4721L44.4721 53.451L7.04688 31.9854L8.45628 29.5605L47.291 51.8354L47.291 96.3794Z" fill="#FFFFFF"/>
<path d="M83.3086 29.5628L45.1777 51.4316L46.5871 53.8566L84.718 31.9878L83.3086 29.5628Z" fill="#FFFFFF"/>
<path d="M110.033 55.0709C108.318 55.0709 107.003 54.7311 106.087 54.0514C105.15 53.3386 104.489 52.3242 104.217 51.1807C103.864 49.7669 103.697 48.3134 103.72 46.8568V31.2148H106.876V47.0024C106.87 47.9288 106.938 48.8541 107.081 49.7696C107.172 50.5044 107.483 51.1947 107.974 51.7503C108.431 52.2358 109.117 52.4785 110.033 52.4785C110.949 52.4785 111.642 52.2358 112.114 51.7503C112.596 51.1907 112.901 50.5016 112.991 49.7696C113.134 48.8541 113.202 47.9288 113.196 47.0024V31.2148H116.323V46.8568C116.346 48.3134 116.179 49.7669 115.826 51.1807C115.553 52.3196 114.896 53.3307 113.965 54.045C113.058 54.7246 111.747 55.0645 110.033 55.0645" fill="#FFFFFF"/>
<path d="M119.795 54.8088V31.2148H122.045L128.767 46.8859V31.2148H131.515V54.8088H129.41L122.601 38.7008V54.8088H119.795Z" fill="#FFFFFF"/>
<path d="M138.646 31.2148H135.401V54.8088H138.646V31.2148Z" fill="#FFFFFF"/>
<path d="M145.075 54.8088V33.6616H141.071V31.2148L152.265 31.2148V33.6616H148.378V54.8088H145.075Z" fill="#FFFFFF"/>
<path d="M154.545 54.8088V31.2148L163.722 31.2148V33.6616H157.848V41.468H162.611V43.7983H157.848V52.4494H163.781V54.8088H154.545Z" fill="#FFFFFF"/>
<path d="M166.44 54.8088V31.2148H171.584C173.338 31.2148 174.727 31.4813 175.751 32.0143C176.75 32.5243 177.529 33.3789 177.943 34.419C178.414 35.6952 178.635 37.0501 178.592 38.4095V47.0898C178.633 48.5252 178.413 49.9561 177.943 51.3134C177.552 52.4 176.799 53.3198 175.809 53.9188C174.826 54.5143 173.506 54.811 171.847 54.8088H166.44ZM169.743 52.4494H171.614C172.822 52.4494 173.679 52.2164 174.185 51.7503C174.73 51.2043 175.058 50.4798 175.108 49.7113C175.222 48.6364 175.275 47.5558 175.267 46.4749V38.8335C175.286 37.8379 175.208 36.8429 175.033 35.8624C174.983 35.5314 174.867 35.2137 174.691 34.9284C174.516 34.6431 174.284 34.3961 174.01 34.2021C173.484 33.8375 172.661 33.6552 171.542 33.6552H169.759L169.743 52.4494Z" fill="#FFFFFF"/>
<path d="M191.955 31.2148H188.711V54.8088H191.955V31.2148Z" fill="#FFFFFF"/>
<path d="M198.385 54.8088V33.6616H194.381V31.2148L205.575 31.2148V33.6616H201.687V54.8088H198.385Z" fill="#FFFFFF"/>
<path d="M220.48 55.0704C218.805 55.0704 217.506 54.7209 216.583 54.0218C215.651 53.3125 214.974 52.3212 214.654 51.1964C214.279 49.914 214.095 48.5836 214.109 47.2479V38.9042C214.083 37.497 214.265 36.0936 214.648 34.7389C214.957 33.6284 215.637 32.6566 216.577 31.9846C217.501 31.3373 218.8 31.0137 220.474 31.0137C221.954 31.0137 223.128 31.2855 223.994 31.8293C224.862 32.3746 225.521 33.1954 225.864 34.1595C226.271 35.3296 226.465 36.5626 226.436 37.8006V39.6648H223.309V38.0045C223.314 37.23 223.27 36.456 223.176 35.6872C223.127 35.1009 222.875 34.5501 222.461 34.1304C222.071 33.7614 221.422 33.577 220.513 33.577C219.603 33.577 218.921 33.7755 218.467 34.1725C218.009 34.628 217.715 35.2222 217.632 35.8619C217.497 36.7052 217.434 37.5584 217.444 38.4123V47.7625C217.417 48.7076 217.515 49.6522 217.736 50.5717C217.868 51.1655 218.215 51.6899 218.71 52.0443C219.259 52.3616 219.889 52.5134 220.522 52.4813C221.419 52.4813 222.062 52.2817 222.451 51.8825C222.867 51.4279 223.124 50.8508 223.182 50.2384C223.286 49.427 223.335 48.6095 223.328 47.7916V46.0439H226.455V47.7916C226.477 49.0775 226.299 50.3591 225.929 51.5912C225.626 52.6219 224.989 53.5234 224.117 54.1545C223.251 54.7673 222.043 55.0737 220.493 55.0737" fill="#FFFFFF"/>
<path d="M229.599 54.8088V31.2148H232.901V52.4494H238.951V54.8088H229.599Z" fill="#FFFFFF"/>
<path d="M247.309 55.0709C245.595 55.0709 244.276 54.7311 243.364 54.0514C242.424 53.3404 241.763 52.3253 241.493 51.1807C241.139 49.7672 240.972 48.3135 240.997 46.8568V31.2148H244.15V47.0024C244.143 47.9289 244.212 48.8544 244.358 49.7696C244.446 50.5045 244.756 51.1952 245.247 51.7503C245.705 52.2358 246.39 52.4785 247.309 52.4785C248.228 52.4785 248.933 52.2358 249.385 51.7503C249.865 51.19 250.17 50.5012 250.261 49.7696C250.402 48.854 250.471 47.9287 250.466 47.0024V31.2148H253.593V46.8568C253.615 48.3136 253.447 49.7671 253.093 51.1807C252.823 52.3211 252.169 53.3345 251.239 54.0514C250.332 54.7311 249.022 55.0709 247.309 55.0709Z" fill="#FFFFFF"/>
<path d="M257.071 54.8084V31.2144H262.507C263.449 31.1978 264.389 31.3156 265.297 31.564C266.03 31.7659 266.706 32.1348 267.271 32.6417C267.811 33.1497 268.213 33.7854 268.44 34.4897C268.708 35.3431 268.836 36.2336 268.82 37.1275C268.838 37.9812 268.714 38.8319 268.453 39.6455C268.249 40.2975 267.864 40.8787 267.343 41.322C266.79 41.7538 266.128 42.0259 265.43 42.1084C266.28 42.2725 267.074 42.6477 267.739 43.1991C268.336 43.7367 268.784 44.419 269.038 45.1798C269.342 46.1202 269.486 47.1048 269.463 48.0927C269.473 49.0267 269.355 49.9576 269.113 50.8599C268.907 51.64 268.532 52.3658 268.015 52.9862C267.499 53.5818 266.848 54.0457 266.115 54.3391C265.246 54.6784 264.318 54.8423 263.384 54.8213L257.071 54.8084ZM260.374 41.0598H262.322C263.074 41.0949 263.823 40.9599 264.514 40.665C265.037 40.4051 265.436 39.9505 265.625 39.3995C265.862 38.6684 265.972 37.9021 265.95 37.134C265.95 36.0551 265.784 35.2687 265.453 34.7746C265.271 34.5242 265.04 34.3135 264.774 34.1554C264.507 33.9973 264.211 33.8952 263.904 33.8554C263 33.7127 262.085 33.6455 261.169 33.6547H260.38L260.374 41.0598ZM260.374 52.449H262.595C264.074 52.449 265.062 52.1038 265.56 51.4133C266.058 50.7229 266.307 49.6117 266.307 48.0797C266.33 47.2318 266.196 46.3869 265.911 45.5876C265.677 44.9548 265.234 44.4204 264.654 44.073C263.939 43.7022 263.137 43.5269 262.332 43.5648H260.384L260.374 52.449Z" fill="#FFFFFF"/>
<path d="M277.965 55.071C276.77 55.1147 275.588 54.8111 274.562 54.1971C273.651 53.6106 272.934 52.7697 272.5 51.7795C272.008 50.6456 271.731 49.431 271.682 48.1967L274.604 47.4102C274.66 48.2267 274.793 49.0361 275 49.8279C275.169 50.5378 275.516 51.1936 276.007 51.7342C276.261 51.9877 276.566 52.185 276.902 52.3133C277.238 52.4416 277.597 52.4979 277.956 52.4786C278.813 52.4786 279.462 52.2423 279.904 51.7633C280.346 51.2843 280.554 50.6046 280.554 49.7114C280.601 48.7919 280.344 47.8823 279.823 47.1222C279.276 46.4081 278.659 45.75 277.982 45.1576L274.007 41.6622C273.279 41.0497 272.691 40.2894 272.282 39.4323C271.885 38.4888 271.695 37.4711 271.727 36.4483C271.727 34.7221 272.224 33.3822 273.218 32.4286C274.211 31.4749 275.566 30.9991 277.28 31.0013C278.118 30.986 278.953 31.1085 279.751 31.3638C280.429 31.586 281.042 31.9718 281.534 32.4868C282.04 33.0385 282.428 33.6871 282.674 34.3931C282.978 35.264 283.169 36.17 283.242 37.0891L280.45 37.8626C280.4 37.1391 280.283 36.4218 280.099 35.7201C279.953 35.1178 279.633 34.5712 279.18 34.1471C278.649 33.7185 277.975 33.5058 277.293 33.5516C276.595 33.5072 275.907 33.7399 275.38 34.1989C274.921 34.6304 274.692 35.2777 274.692 36.1408C274.67 36.7538 274.796 37.3632 275.059 37.9176C275.364 38.46 275.765 38.9434 276.241 39.3449L280.245 42.8403C281.164 43.6499 281.958 44.5899 282.603 45.6302C283.305 46.7833 283.66 48.1135 283.626 49.4622C283.654 50.5133 283.402 51.553 282.895 52.4753C282.43 53.3014 281.735 53.9758 280.894 54.4172C279.99 54.8756 278.986 55.1056 277.972 55.0872" fill="#FFFFFF"/>
<path d="M127.157 74.3809V63.9545H129.593C130.087 63.9291 130.577 64.0487 131.011 64.3C131.364 64.5301 131.636 64.876 131.785 65.2849C131.957 65.7799 132.04 66.3046 132.029 66.8318C132.041 67.3258 131.946 67.8161 131.751 68.2653C131.581 68.6585 131.298 68.985 130.943 69.1986C130.532 69.4334 130.069 69.5474 129.603 69.5287H128.521V74.3809H127.157ZM128.536 68.4767H129.169C129.486 68.4891 129.803 68.442 130.105 68.3375C130.216 68.293 130.317 68.224 130.401 68.1351C130.485 68.0462 130.55 67.9395 130.592 67.8219C130.703 67.5019 130.752 67.1619 130.738 66.8215C130.749 66.4352 130.715 66.0489 130.636 65.6716C130.609 65.5504 130.556 65.4375 130.48 65.3417C130.405 65.246 130.31 65.1701 130.202 65.1199C129.874 64.9983 129.526 64.9457 129.179 64.9652H128.536V68.4767Z" fill="#FFFFFF"/>
<path d="M132.727 74.3809V63.9532H134.911C135.522 63.9357 136.131 64.0302 136.705 64.2317C137.163 64.394 137.543 64.7111 137.776 65.1239C138.023 65.6239 138.141 66.1743 138.119 66.7277C138.121 67.0995 138.076 67.4701 137.985 67.8314C137.906 68.1362 137.76 68.4212 137.557 68.6668C137.354 68.9065 137.085 69.0855 136.78 69.1825L138.295 74.3809H136.839L135.42 69.4816H134.242V74.3809H132.727ZM134.242 68.4399H134.815C135.17 68.4513 135.524 68.3989 135.859 68.2852C136.117 68.1926 136.328 68.0079 136.448 67.7695C136.587 67.4427 136.651 67.0908 136.636 66.7381C136.678 66.2727 136.555 65.8073 136.287 65.4178C136.102 65.2587 135.883 65.14 135.645 65.0697C135.408 64.9994 135.158 64.9792 134.911 65.0104H134.242V68.4399Z" fill="#FFFFFF"/>
<path d="M141.781 74.3772C141.206 74.4058 140.635 74.2655 140.138 73.9737C139.723 73.6998 139.413 73.2925 139.259 72.8185C139.071 72.251 138.981 71.6557 138.992 71.0579V67.1837C138.979 66.5936 139.071 66.006 139.264 65.4484C139.424 64.9896 139.734 64.5985 140.143 64.3386C140.642 64.0586 141.21 63.9258 141.781 63.9552C142.351 63.9269 142.917 64.0616 143.413 64.3436C143.818 64.6079 144.124 64.9976 144.287 65.4534C144.481 66.0092 144.573 66.5953 144.559 67.1837V71.068C144.571 71.6596 144.479 72.2487 144.287 72.8084C144.127 73.2775 143.82 73.6825 143.413 73.9636C142.922 74.26 142.353 74.4023 141.781 74.3722V74.3772ZM141.781 73.2473C142.083 73.2699 142.385 73.188 142.635 73.0152C142.834 72.8461 142.972 72.6155 143.027 72.3594C143.099 72.0281 143.132 71.6896 143.127 71.3505V66.8709C143.132 66.5436 143.098 66.2168 143.027 65.8973C142.972 65.6483 142.833 65.4258 142.635 65.2668C142.381 65.1021 142.082 65.0242 141.781 65.0448C141.478 65.0253 141.177 65.103 140.922 65.2668C140.719 65.4226 140.578 65.6463 140.525 65.8973C140.453 66.2168 140.42 66.5436 140.424 66.8709V71.3505C140.419 71.6896 140.453 72.0281 140.525 72.3594C140.577 72.6176 140.717 72.8495 140.922 73.0152C141.174 73.1873 141.476 73.2691 141.781 73.2473Z" fill="#FFFFFF"/>
<path d="M148.601 74.3784C148.058 74.4016 147.52 74.2589 147.062 73.97C146.656 73.6744 146.358 73.2566 146.215 72.78C146.028 72.1706 145.94 71.5359 145.954 70.8993V67.4858C145.94 66.841 146.019 66.1976 146.19 65.5749C146.321 65.0888 146.621 64.6628 147.036 64.3698C147.547 64.0655 148.139 63.9213 148.735 63.9563C149.278 63.9319 149.818 64.0429 150.305 64.279C150.706 64.4925 151.014 64.8419 151.172 65.2623C151.368 65.7969 151.461 66.3631 151.444 66.9312V67.3094H150.084V66.9917C150.091 66.6265 150.06 66.2616 149.992 65.9026C149.954 65.6554 149.824 65.4308 149.628 65.2723C149.368 65.1154 149.064 65.043 148.76 65.0656C148.594 65.0507 148.426 65.0684 148.267 65.1178C148.107 65.1671 147.959 65.2471 147.832 65.353C147.627 65.5712 147.501 65.8493 147.473 66.1446C147.423 66.5174 147.399 66.8931 147.401 67.269V71.0506C147.393 71.4616 147.43 71.8722 147.508 72.2758C147.557 72.5605 147.706 72.8193 147.929 73.0069C148.184 73.1815 148.492 73.2651 148.802 73.2439C149.115 73.264 149.425 73.1708 149.674 72.9817C149.896 72.7724 150.043 72.4984 150.095 72.2002C150.18 71.777 150.22 71.3459 150.213 70.9145V70.2035H148.889V69.1951H151.521V74.2372H150.587L150.449 73.0675C150.322 73.4282 150.101 73.7499 149.807 74.0003C149.463 74.2593 149.035 74.3881 148.601 74.3633" fill="#FFFFFF"/>
<path d="M152.914 74.3809V63.9534H154.821C155.356 63.935 155.888 64.0295 156.391 64.2319C156.792 64.3925 157.125 64.7101 157.328 65.1241C157.546 65.6232 157.649 66.1742 157.628 66.7279C157.632 67.0997 157.592 67.4706 157.51 67.8315C157.443 68.1371 157.315 68.4225 157.136 68.6669C156.958 68.9066 156.723 69.0856 156.456 69.1826L157.787 74.3809H156.508L155.266 69.4817H154.235V74.3809H152.914ZM154.235 68.44H154.751C155.069 68.4547 155.387 68.4022 155.688 68.2853C155.913 68.1927 156.098 68.008 156.203 67.7696C156.325 67.4428 156.381 67.091 156.367 66.7382C156.404 66.2729 156.297 65.8074 156.063 65.418C155.899 65.2594 155.707 65.1409 155.498 65.0707C155.29 65.0004 155.07 64.9799 154.854 65.0106H154.235V68.44Z" fill="#FFFFFF"/>
<path d="M158.482 74.3809L160.602 63.9512H161.932L164.051 74.3809H162.735L162.277 71.7541H160.247L159.754 74.3809H158.482ZM160.454 70.7137H162.119L161.282 66.0114L160.454 70.7137Z" fill="#FFFFFF"/>
<path d="M165.443 74.3809L165.62 63.9512H166.911L168.574 72.4134L170.255 63.9512H171.536L171.708 74.3809H170.651L170.544 66.8097L168.946 74.3809H168.206L166.617 66.8097L166.515 74.3809H165.443Z" fill="#FFFFFF"/>
<path d="M173.101 74.3809L173.297 63.9512H174.731L176.579 72.4134L178.447 63.9512H179.865L180.062 74.3809H178.887L178.768 66.8097L176.993 74.3809H176.17L174.405 66.8097L174.291 74.3809H173.101Z" fill="#FFFFFF"/>
<path d="M182.846 63.9512H181.454V74.3809H182.846V63.9512Z" fill="#FFFFFF"/>
<path d="M184.935 74.3809V63.9512H185.868L188.665 70.8785V63.9512H189.807V74.3809H188.932L186.102 67.2629V74.3809H184.935Z" fill="#FFFFFF"/>
<path d="M193.529 74.3784C193.052 74.4019 192.58 74.2592 192.178 73.9699C191.822 73.6743 191.561 73.2566 191.435 72.78C191.27 72.1708 191.19 71.5361 191.201 70.8993V67.4858C191.19 66.8408 191.261 66.1973 191.413 65.5749C191.528 65.0888 191.791 64.6628 192.156 64.3698C192.604 64.0655 193.123 63.9213 193.646 63.9563C194.122 63.9319 194.596 64.0429 195.024 64.279C195.376 64.4925 195.646 64.8419 195.785 65.2622C195.955 65.7972 196.035 66.3634 196.019 66.9312V67.3093H194.826V66.9917C194.833 66.6267 194.808 66.2618 194.749 65.9026C194.716 65.6554 194.602 65.4308 194.43 65.2723C194.202 65.1154 193.935 65.043 193.669 65.0656C193.523 65.0507 193.375 65.0684 193.235 65.1178C193.096 65.1671 192.966 65.2471 192.854 65.353C192.674 65.5712 192.563 65.8492 192.539 66.1446C192.495 66.5174 192.474 66.893 192.476 67.269V71.0506C192.469 71.4615 192.501 71.8721 192.57 72.2758C192.611 72.5599 192.74 72.8187 192.935 73.0069C193.159 73.1807 193.428 73.2643 193.7 73.2439C193.975 73.2649 194.248 73.1716 194.466 72.9817C194.663 72.7742 194.795 72.4996 194.839 72.2002C194.913 71.7767 194.946 71.3457 194.938 70.9144V70.2035H193.768V69.1951H196.073V74.2372H195.276L195.15 73.0674C195.042 73.4301 194.847 73.7527 194.587 74.0002C194.285 74.2601 193.909 74.389 193.529 74.3632" fill="#FFFFFF"/>
<path d="M202.929 74.38C202.555 74.3915 202.186 74.2884 201.861 74.082C201.568 73.8912 201.332 73.6084 201.182 73.269C201.019 72.9002 200.938 72.4932 200.946 72.0823C200.933 71.4899 201.069 70.9054 201.34 70.3955C201.597 69.9239 201.914 69.4969 202.282 69.128C202.146 68.825 202.001 68.522 201.829 68.214C201.675 67.9064 201.543 67.5856 201.435 67.2545C201.323 66.9203 201.266 66.566 201.268 66.2091C201.26 65.7976 201.342 65.3902 201.508 65.0224C201.662 64.6932 201.898 64.42 202.187 64.2346C202.505 64.0402 202.864 63.9426 203.228 63.9518C203.569 63.9459 203.907 64.0235 204.219 64.179C204.499 64.3213 204.739 64.5466 204.912 64.8305C205.091 65.1286 205.183 65.4816 205.174 65.8405C205.173 66.2861 205.078 66.7253 204.898 67.1232C204.713 67.5296 204.487 67.9109 204.224 68.2594C203.982 68.5822 203.725 68.8907 203.454 69.1835L204.835 71.6076C204.923 71.4177 204.993 71.2179 205.043 71.0117C205.102 70.7895 205.147 70.547 205.192 70.2945C205.238 70.042 205.265 69.7895 205.287 69.5623H206.505C206.5 69.9038 206.456 70.2432 206.374 70.5723C206.289 70.9194 206.177 71.2574 206.039 71.5823C205.92 71.8705 205.781 72.1475 205.622 72.4105C205.731 72.5542 205.861 72.6756 206.007 72.769C206.16 72.8726 206.335 72.9268 206.514 72.9256V74.3143H206.356C206.151 74.3101 205.949 74.2531 205.767 74.1477C205.601 74.0418 205.449 73.911 205.315 73.7589L204.912 73.3296C204.694 73.6284 204.423 73.8727 204.115 74.0467C203.75 74.2433 203.348 74.3402 202.943 74.3295L202.929 74.38ZM202.943 73.2033C203.2 73.2136 203.454 73.1323 203.667 72.971C203.855 72.8289 204.026 72.6591 204.174 72.466L202.771 70.0572C202.576 70.3324 202.423 70.6411 202.318 70.9713C202.21 71.3188 202.155 71.6841 202.155 72.052C202.155 72.2414 202.177 72.43 202.223 72.6125C202.262 72.7827 202.343 72.9369 202.458 73.0569C202.586 73.1709 202.747 73.2299 202.911 73.2235L202.943 73.2033ZM203.033 68.426C203.207 68.1968 203.358 67.948 203.486 67.6837C203.627 67.3924 203.742 67.0862 203.83 66.7697C203.918 66.4611 203.964 66.1392 203.966 65.8152C203.97 65.7086 203.955 65.602 203.92 65.5027C203.885 65.4034 203.831 65.3137 203.762 65.2395C203.615 65.0981 203.426 65.0241 203.232 65.0325C203.115 65.022 202.998 65.0499 202.895 65.1127C202.792 65.1755 202.708 65.2705 202.653 65.386C202.539 65.6306 202.481 65.9031 202.485 66.1788C202.486 66.5726 202.546 66.9634 202.662 67.3353C202.775 67.7191 202.902 68.0826 203.038 68.426" fill="#FFFFFF"/>
<path d="M211.388 74.3615V63.9553H213.448C214.023 63.9265 214.596 64.0482 215.12 64.3104C215.518 64.5373 215.829 64.9134 215.996 65.3706C216.187 65.9347 216.276 66.5343 216.258 67.1359V70.97C216.275 71.6034 216.186 72.2348 215.996 72.833C215.842 73.3142 215.541 73.7216 215.144 73.9859C214.656 74.2709 214.108 74.406 213.556 74.377L211.388 74.3615ZM212.713 73.3322H213.462C213.829 73.3704 214.195 73.2606 214.493 73.0235C214.709 72.7811 214.841 72.4618 214.863 72.1228C214.908 71.6476 214.928 71.1699 214.924 70.6921V67.3108C214.933 66.871 214.901 66.4313 214.83 65.9985C214.811 65.8519 214.765 65.7112 214.695 65.5847C214.625 65.4582 214.532 65.3486 214.422 65.2625C214.116 65.0836 213.771 65.0034 213.425 65.0309H212.713V73.3322Z" fill="#FFFFFF"/>
<path d="M217.652 74.3809V63.9512H221.803V65.0328H219.143V68.4836H221.3V69.5137H219.143V73.3405H221.829V74.3809H217.652Z" fill="#FFFFFF"/>
<path d="M225.088 74.3601C224.599 74.3792 224.116 74.2479 223.697 73.9821C223.326 73.7273 223.035 73.3628 222.859 72.934C222.659 72.4444 222.546 71.92 222.525 71.387L223.716 71.0444C223.738 71.3985 223.792 71.7495 223.878 72.0925C223.946 72.4004 224.087 72.6849 224.287 72.9189C224.392 73.0281 224.518 73.1127 224.656 73.1674C224.793 73.2221 224.941 73.2456 225.088 73.2364C225.232 73.2474 225.378 73.2256 225.514 73.1727C225.65 73.1197 225.774 73.0366 225.878 72.929C226.069 72.6795 226.165 72.3627 226.145 72.0421C226.163 71.6468 226.059 71.256 225.85 70.9285C225.626 70.6188 225.374 70.3335 225.097 70.0769L223.478 68.5652C223.182 68.3011 222.943 67.9729 222.778 67.6028C222.615 67.1935 222.537 66.7518 222.549 66.3077C222.531 65.9891 222.576 65.67 222.681 65.3707C222.786 65.0715 222.949 64.7985 223.159 64.5693C223.611 64.1418 224.205 63.9208 224.811 63.9545C225.152 63.947 225.492 63.9998 225.816 64.1108C226.094 64.2129 226.345 64.386 226.545 64.6147C226.755 64.8528 226.917 65.134 227.021 65.441C227.148 65.8162 227.227 66.2077 227.254 66.605L226.111 66.9326C226.091 66.6211 226.043 66.3124 225.969 66.0105C225.91 65.7493 225.779 65.5125 225.592 65.3302C225.367 65.156 225.094 65.0642 224.814 65.0687C224.535 65.0733 224.265 65.1739 224.045 65.3554C223.946 65.4671 223.871 65.599 223.824 65.743C223.776 65.887 223.757 66.0398 223.768 66.1918C223.758 66.456 223.809 66.7189 223.916 66.9578C224.04 67.1915 224.201 67.4011 224.392 67.5776L226.026 69.0893C226.397 69.4396 226.718 69.8453 226.978 70.2936C227.265 70.7903 227.411 71.3642 227.397 71.9464C227.409 72.4019 227.305 72.8525 227.097 73.2515C226.909 73.6087 226.626 73.8996 226.283 74.0879C225.914 74.2895 225.503 74.39 225.088 74.3802" fill="#FFFFFF"/>
<path d="M230.182 63.9512H228.79V74.3809H230.182V63.9512Z" fill="#FFFFFF"/>
<path d="M234.224 74.3785C233.68 74.4011 233.142 74.2584 232.684 73.9701C232.281 73.6727 231.986 73.2554 231.843 72.7801C231.651 72.1715 231.561 71.5363 231.576 70.8994V67.4857C231.563 66.8407 231.644 66.1971 231.817 65.5747C231.944 65.0881 232.242 64.6614 232.658 64.3696C233.171 64.0661 233.765 63.9219 234.362 63.9561C234.905 63.9321 235.445 64.0431 235.932 64.2788C236.332 64.4937 236.64 64.8427 236.799 65.2621C236.994 65.7971 237.084 66.3632 237.066 66.9311V67.3092H235.706V66.9916C235.712 66.6266 235.683 66.262 235.619 65.9024C235.578 65.6553 235.447 65.4313 235.25 65.2722C234.992 65.1149 234.69 65.0425 234.388 65.0654C234.22 65.0504 234.052 65.0681 233.892 65.1174C233.731 65.1667 233.582 65.2467 233.454 65.3528C233.253 65.5729 233.129 65.8503 233.1 66.1445C233.047 66.517 233.023 66.8929 233.028 67.2689V71.0506C233.021 71.4616 233.057 71.8722 233.136 72.2759C233.183 72.56 233.33 72.8189 233.551 73.007C233.806 73.1808 234.114 73.2644 234.424 73.244C234.737 73.2651 235.048 73.1717 235.296 72.9818C235.52 72.773 235.669 72.499 235.722 72.2003C235.805 71.7768 235.843 71.3458 235.835 70.9145V70.2035H234.516V69.1951H237.143V74.2374H236.214L236.071 73.0675C235.948 73.4302 235.726 73.7529 235.429 74.0004C235.085 74.2602 234.657 74.3892 234.224 74.3634" fill="#FFFFFF"/>
<path d="M238.535 74.3809V63.9512H239.473L242.266 70.8785V63.9512H243.408V74.3809H242.533L239.701 67.2629V74.3809H238.535Z" fill="#FFFFFF"/>
<path d="M246.193 63.9512H244.801V74.3809H246.193V63.9512Z" fill="#FFFFFF"/>
<path d="M247.585 74.3809V63.9512H248.657L251.849 70.8785V63.9512H253.154V74.3809H252.154L248.917 67.2629V74.3809H247.585Z" fill="#FFFFFF"/>
<path d="M256.864 74.3784C256.388 74.4016 255.918 74.2589 255.517 73.97C255.161 73.6744 254.901 73.2566 254.776 72.78C254.612 72.1706 254.535 71.5359 254.547 70.8993V67.4858C254.535 66.841 254.604 66.1976 254.754 65.5749C254.869 65.0888 255.131 64.6628 255.495 64.3698C255.941 64.0655 256.459 63.9213 256.981 63.9563C257.456 63.9319 257.928 64.0429 258.355 64.279C258.705 64.4925 258.975 64.8419 259.113 65.2623C259.285 65.7969 259.366 66.3631 259.351 66.9312V67.3094H258.162V66.9917C258.168 66.6265 258.141 66.2616 258.081 65.9026C258.048 65.6554 257.934 65.4308 257.762 65.2723C257.535 65.1154 257.269 65.043 257.003 65.0656C256.858 65.0507 256.711 65.0684 256.571 65.1178C256.432 65.1671 256.302 65.2471 256.191 65.353C256.012 65.5712 255.901 65.8493 255.876 66.1446C255.833 66.5174 255.812 66.8931 255.813 67.269V71.0506C255.807 71.4616 255.839 71.8722 255.908 72.2758C255.952 72.5598 256.082 72.8179 256.276 73.0069C256.499 73.1815 256.768 73.2651 257.039 73.2439C257.314 73.264 257.585 73.1708 257.802 72.9817C257.997 72.7724 258.126 72.4984 258.171 72.2002C258.245 71.777 258.28 71.3459 258.274 70.9145V70.2035H257.115V69.1951H259.419V74.2372H258.62L258.498 73.0675C258.387 73.4282 258.194 73.7499 257.937 74.0003C257.635 74.2593 257.261 74.3881 256.882 74.3633" fill="#FFFFFF"/>
</svg>
